<svg xmlns="http://www.w3.org/2000/svg" fill="none" version="1.1" width="104" height="58" viewBox="0 0 104 58">
    <defs>
        <clipPath id="master_svg0_28_642">
            <rect x="39" y="16" width="26" height="26" rx="0" />
        </clipPath>
    </defs>
    <g>
        <g>
            <rect x="0" y="0" width="104" height="58" rx="4" fill="#4F70A0" fill-opacity="1" />
        </g>
        <g style="opacity:0.14000000059604645;" clip-path="url(#master_svg0_28_642)">
            <g>
                <path
                    d="M61.81884734375,33.942837265625C61.02970634375,33.942837265625,60.38427734375,33.297157265625,60.38427734375,32.508267265625L60.38427734375,26.186767265625C60.38427734375,25.397627265625,61.02996034375,24.752197265625,61.81884734375,24.752197265625C62.60798734375,24.752197265625,63.25341734375,25.397880265625,63.25341734375,26.186767265625L63.25341734375,32.508267265625C63.25341734375,33.297417265625,62.60798734375,33.942837265625,61.81884734375,33.942837265625Z"
                    fill="#FFFFFF" fill-opacity="1" style="mix-blend-mode:passthrough" />
            </g>
            <g>
                <path
                    d="M44.5178273046875,38.514274609375L56.5595373046875,38.514274609375C58.6632373046875,38.514274609375,60.3841373046875,36.793274609375004,60.384437304687495,34.689974609375L60.384437304687495,23.648564609375C60.384437304687495,21.544954609375,58.6632373046875,19.823974609375,56.5598373046875,19.823974609375L44.5178273046875,19.823974609375C42.4142173046875,19.823974609375,40.6932373046875,21.545204609375,40.6932373046875,23.648564609375L40.6932373046875,34.689674609375004C40.6932373046875,36.793274609375004,42.4144673046875,38.514274609375,44.5178273046875,38.514274609375ZM53.2018373046875,29.615554609375L49.9360573046875,32.881274609375C49.3652773046875,33.452074609375,48.3897673046875,33.047874609375,48.3897673046875,32.240674609375L48.3897673046875,25.709204609375C48.3897673046875,24.902294609374998,49.365527304687504,24.498324609375,49.9360573046875,25.068854609375002L53.2018373046875,28.334594609375C53.5555373046875,28.688294609375,53.5555373046875,29.261864609375,53.2018373046875,29.615554609375Z"
                    fill-rule="evenodd" fill="#FFFFFF" fill-opacity="1" style="mix-blend-mode:passthrough" />
            </g>
        </g>
    </g>
</svg>