<svg xmlns="http://www.w3.org/2000/svg" fill="none" version="1.1" width="60" height="60" viewBox="0 0 60 60">
    <defs>
        <clipPath id="master_svg0_36_699">
            <rect x="0" y="0" width="60" height="60" rx="0" />
        </clipPath>
    </defs>
    <g style="opacity:0.6000000238418579;" clip-path="url(#master_svg0_36_699)">
        <g>
            <path
                d="M11.33507,49.1649Q19.1702,57,30.25,57Q41.3298,57,49.1649,49.1649Q56.9999,41.3299,57,30.25Q57,19.1702,49.1649,11.33507Q41.3299,3.5,30.25,3.5Q19.170099999999998,3.5,11.33507,11.33507Q3.5,19.1702,3.5,30.25Q3.5,41.3299,11.33507,49.1649ZM48.4578,48.4578Q40.9156,56,30.25,56Q19.584400000000002,55.9999,12.04218,48.4578Q4.5,40.9157,4.5,30.25Q4.5,19.584400000000002,12.04218,12.04218Q19.584400000000002,4.5,30.25,4.5Q40.9157,4.5,48.4578,12.04218Q56,19.584400000000002,56,30.25Q55.9999,40.9156,48.4578,48.4578Z"
                fill-rule="evenodd" fill="#FFFFFF" fill-opacity="1" />
        </g>
        <g>
            <g>
                <path
                    d="M29,17.5Q29,17.4015086,29.019215,17.30491Q29.038429999999998,17.208311,29.076121,17.117317Q29.113812,17.026322,29.16853,16.94443Q29.223249,16.862537,29.292893,16.792893Q29.362537,16.723249,29.44443,16.66853Q29.526322,16.613812,29.617317,16.576121Q29.708311,16.538429999999998,29.80491,16.519215Q29.9015086,16.5,30,16.5Q30.0984914,16.5,30.19509,16.519215Q30.291689,16.538429999999998,30.382683,16.576121Q30.473678,16.613812,30.55557,16.66853Q30.637463,16.723249,30.707107,16.792893Q30.776751,16.862537,30.83147,16.94443Q30.886188,17.026322,30.923879,17.117317Q30.961570000000002,17.208311,30.980785,17.30491Q31,17.4015086,31,17.5L31,36Q31,36.0985,30.980785,36.1951Q30.961570000000002,36.2917,30.923879,36.3827Q30.886188,36.4737,30.83147,36.5556Q30.776751,36.6375,30.707107,36.7071Q30.637463,36.776700000000005,30.55557,36.8315Q30.473678,36.8862,30.382683,36.9239Q30.291689,36.961600000000004,30.19509,36.9808Q30.0984914,37,30,37Q29.9015086,37,29.80491,36.9808Q29.708311,36.961600000000004,29.617317,36.9239Q29.526322,36.8862,29.44443,36.8315Q29.362537,36.776700000000005,29.292893,36.7071Q29.223249,36.6375,29.16853,36.5556Q29.113812,36.4737,29.076121,36.3827Q29.038429999999998,36.2917,29.019215,36.1951Q29,36.0985,29,36L29,17.5Z"
                    fill-rule="evenodd" fill="#FFFFFF" fill-opacity="1" />
            </g>
            <g>
                <path
                    d="M20.6889,25.775143L30.6888,35.275Q30.8378,35.4166,30.9189,35.60551Q31,35.79442,31,36Q31,36.09849,30.980800000000002,36.19509Q30.9616,36.29169,30.9239,36.38268Q30.886200000000002,36.47368,30.8315,36.5556Q30.776699999999998,36.6375,30.7071,36.7071Q30.6375,36.7767,30.5556,36.8315Q30.4737,36.8862,30.3827,36.9239Q30.2917,36.961600000000004,30.1951,36.9808Q30.0985,37,30,37Q29.807740000000003,37,29.62919,36.9287Q29.45064,36.8574,29.31125,36.725L29.31092,36.7247L19.311401,27.225141999999998L19.311251,27.224999Q19.162203,27.083404,19.081101,26.894494Q19,26.705583,19,26.5Q19,26.4015086,19.019215,26.30491Q19.038429999999998,26.208311,19.076121,26.117317Q19.113812,26.026322,19.16853,25.94443Q19.223249,25.862537,19.292893,25.792893Q19.362537,25.723249,19.44443,25.66853Q19.526322,25.613812,19.617317,25.576121Q19.708311,25.538429999999998,19.80491,25.519215Q19.9015086,25.5,20,25.5Q20.192258,25.5,20.37081,25.571291Q20.549362,25.642583,20.688749,25.775001L20.6889,25.775143Z"
                    fill-rule="evenodd" fill="#FFFFFF" fill-opacity="1" />
            </g>
            <g transform="matrix(-1,0,0,1,80,0)">
                <path
                    d="M40.6889,25.775143L50.6888,35.275Q50.8378,35.4166,50.9189,35.60551Q51,35.79442,51,36Q51,36.09849,50.9808,36.19509Q50.961600000000004,36.29169,50.9239,36.38268Q50.8862,36.47368,50.8315,36.5556Q50.7767,36.6375,50.7071,36.7071Q50.6375,36.7767,50.5556,36.8315Q50.4737,36.8862,50.3827,36.9239Q50.2917,36.961600000000004,50.1951,36.9808Q50.0985,37,50,37Q49.80774,37,49.62919,36.9287Q49.45064,36.8574,49.31125,36.725L49.310919999999996,36.7247L39.311401000000004,27.225141999999998L39.311251,27.224999Q39.162203,27.083404,39.081101,26.894494Q39,26.705583,39,26.5Q39,26.4015086,39.019215,26.30491Q39.03843,26.208311,39.076121,26.117317Q39.113812,26.026322,39.16853,25.94443Q39.223249,25.862537,39.292893,25.792893Q39.362537,25.723249,39.44443,25.66853Q39.526322,25.613812,39.617317,25.576121Q39.708311,25.538429999999998,39.80491,25.519215Q39.9015086,25.5,40,25.5Q40.192258,25.5,40.37081,25.571291Q40.549362,25.642583,40.688749,25.775001L40.6889,25.775143Z"
                    fill-rule="evenodd" fill="#FFFFFF" fill-opacity="1" />
            </g>
            <g>
                <path
                    d="M19,41L41,41Q41.0985,41,41.1951,41.019215Q41.2917,41.03843,41.3827,41.076121Q41.4737,41.113812,41.5556,41.16853Q41.6375,41.223249,41.7071,41.292893Q41.7768,41.362537,41.8315,41.44443Q41.8862,41.526322,41.9239,41.617317Q41.961600000000004,41.708311,41.9808,41.80491Q42,41.9015086,42,42Q42,42.0984914,41.9808,42.19509Q41.961600000000004,42.291689,41.9239,42.382683Q41.8862,42.473678,41.8315,42.55557Q41.7768,42.637463,41.7071,42.707107Q41.6375,42.776751,41.5556,42.83147Q41.4737,42.886188,41.3827,42.923879Q41.2917,42.96157,41.1951,42.980785Q41.0985,43,41,43L19,43Q18.9015086,43,18.80491,42.980785Q18.708311,42.96157,18.617317,42.923879Q18.526322,42.886188,18.44443,42.83147Q18.362537,42.776751,18.292893,42.707107Q18.223249,42.637463,18.16853,42.55557Q18.113812,42.473678,18.076121,42.382683Q18.038429999999998,42.291689,18.019215,42.19509Q18,42.0984914,18,42Q18,41.9015086,18.019215,41.80491Q18.038429999999998,41.708311,18.076121,41.617317Q18.113812,41.526322,18.16853,41.44443Q18.223249,41.362537,18.292893,41.292893Q18.362537,41.223249,18.44443,41.16853Q18.526322,41.113812,18.617317,41.076121Q18.708311,41.03843,18.80491,41.019215Q18.9015086,41,19,41Z"
                    fill-rule="evenodd" fill="#FFFFFF" fill-opacity="1" />
            </g>
        </g>
    </g>
</svg>