<svg xmlns="http://www.w3.org/2000/svg" fill="none" version="1.1" width="20" height="20" viewBox="0 0 20 20">
    <g>
        <g>
            <path
                d="M4.5,5Q4.5,4.9507543,4.509607,4.9024549Q4.519215,4.854155,4.53806,4.808658Q4.556906,4.763161,4.584265,4.722215Q4.611625,4.681269,4.646447,4.646447Q4.681269,4.611625,4.722215,4.584265Q4.763161,4.556906,4.808658,4.53806Q4.854155,4.519215,4.9024549,4.509607Q4.9507543,4.5,5,4.5Q5.0492457,4.5,5.0975451,4.509607Q5.145845,4.519215,5.191342,4.53806Q5.236839,4.556906,5.277785,4.584265Q5.318731,4.611625,5.353553,4.646447Q5.388375,4.681269,5.415735,4.722215Q5.443094,4.763161,5.46194,4.808658Q5.480785,4.854155,5.490393,4.9024549Q5.5,4.9507543,5.5,5L5.5,15Q5.5,15.0492,5.490393,15.0975Q5.480785,15.1458,5.46194,15.1913Q5.443094,15.2368,5.415735,15.2778Q5.388375,15.3187,5.353553,15.3536Q5.318731,15.3884,5.277785,15.4157Q5.236839,15.4431,5.191342,15.4619Q5.145845,15.4808,5.0975451,15.4904Q5.0492457,15.5,5,15.5Q4.9507543,15.5,4.9024549,15.4904Q4.854155,15.4808,4.808658,15.4619Q4.763161,15.4431,4.722215,15.4157Q4.681269,15.3884,4.646447,15.3536Q4.611625,15.3187,4.584265,15.2778Q4.556906,15.2368,4.53806,15.1913Q4.519215,15.1458,4.509607,15.0975Q4.5,15.0492,4.5,15L4.5,5Z"
                fill-rule="evenodd" fill="#FFFFFF" fill-opacity="1" />
        </g>
        <g>
            <path
                d="M14.5,5Q14.5,4.9507543,14.509607,4.9024549Q14.519214999999999,4.854155,14.53806,4.808658Q14.556906,4.763161,14.584265,4.722215Q14.611625,4.681269,14.646447,4.646447Q14.681269,4.611625,14.722215,4.584265Q14.763161,4.556906,14.808658,4.53806Q14.854155,4.519215,14.9024549,4.509607Q14.9507543,4.5,15,4.5Q15.0492457,4.5,15.0975451,4.509607Q15.145845,4.519215,15.191342,4.53806Q15.236839,4.556906,15.277785,4.584265Q15.318731,4.611625,15.353553,4.646447Q15.388375,4.681269,15.415735,4.722215Q15.443094,4.763161,15.46194,4.808658Q15.480785000000001,4.854155,15.490393,4.9024549Q15.5,4.9507543,15.5,5L15.5,15Q15.5,15.0492,15.490393,15.0975Q15.480785000000001,15.1458,15.46194,15.1913Q15.443094,15.2368,15.415735,15.2778Q15.388375,15.3187,15.353553,15.3536Q15.318731,15.3884,15.277785,15.4157Q15.236839,15.4431,15.191342,15.4619Q15.145845,15.4808,15.0975451,15.4904Q15.0492457,15.5,15,15.5Q14.9507543,15.5,14.9024549,15.4904Q14.854155,15.4808,14.808658,15.4619Q14.763161,15.4431,14.722215,15.4157Q14.681269,15.3884,14.646447,15.3536Q14.611625,15.3187,14.584265,15.2778Q14.556906,15.2368,14.53806,15.1913Q14.519214999999999,15.1458,14.509607,15.0975Q14.5,15.0492,14.5,15L14.5,5Z"
                fill-rule="evenodd" fill="#FFFFFF" fill-opacity="1" />
        </g>
    </g>
</svg>