<svg xmlns="http://www.w3.org/2000/svg" fill="none" version="1.1" width="20" height="20" viewBox="0 0 20 20">
    <g>
        <g>
            <path
                d="M9.5,3.0556640625Q9.5,3.0064183625,9.509607,2.9581189625Q9.519214999999999,2.9098190625,9.53806,2.8643220625Q9.556906,2.8188250625,9.584265,2.7778790625Q9.611625,2.7369330625,9.646447,2.7021110625Q9.681269,2.6672890625,9.722215,2.6399290625Q9.763161,2.6125700625,9.808658,2.5937240624999998Q9.854155,2.5748790625,9.9024549,2.5652710625Q9.9507543,2.5556640625,10,2.5556640625Q10.0492457,2.5556640625,10.0975451,2.5652710625Q10.145845,2.5748790625,10.191342,2.5937240624999998Q10.236839,2.6125700625,10.277785,2.6399290625Q10.318731,2.6672890625,10.353553,2.7021110625Q10.388375,2.7369330625,10.415735,2.7778790625Q10.443094,2.8188250625,10.46194,2.8643220625Q10.480785000000001,2.9098190625,10.490393,2.9581189625Q10.5,3.0064183625,10.5,3.0556640625L10.5,13.3334640625Q10.5,13.3826640625,10.490393,13.4309640625Q10.480785000000001,13.4792640625,10.46194,13.5247640625Q10.443094,13.5702640625,10.415735,13.6112640625Q10.388375,13.6521640625,10.353553,13.6869640625Q10.318731,13.7218640625,10.277785,13.7491640625Q10.236839,13.7765640625,10.191342,13.7953640625Q10.145845,13.8142640625,10.0975451,13.8238640625Q10.0492457,13.8334640625,10,13.8334640625Q9.9507543,13.8334640625,9.9024549,13.8238640625Q9.854155,13.8142640625,9.808658,13.7953640625Q9.763161,13.7765640625,9.722215,13.7491640625Q9.681269,13.7218640625,9.646447,13.6869640625Q9.611625,13.6521640625,9.584265,13.6112640625Q9.556906,13.5702640625,9.53806,13.5247640625Q9.519214999999999,13.4792640625,9.509607,13.4309640625Q9.5,13.3826640625,9.5,13.3334640625L9.5,3.0556640625Z"
                fill-rule="evenodd" fill="#FFFFFF" fill-opacity="1" />
        </g>
        <g>
            <path
                d="M4.7889080078125,7.6932360625000005L10.344388007812501,12.9709440625Q10.418908007812501,13.041744062500001,10.4594680078125,13.1361940625Q10.5000180078125,13.230654062500001,10.5000180078125,13.3334440625Q10.5000180078125,13.382684062500001,10.490408007812501,13.4309840625Q10.4807980078125,13.4792840625,10.4619580078125,13.5247840625Q10.4431080078125,13.5702840625,10.4157480078125,13.6112240625Q10.3883880078125,13.6521740625,10.3535680078125,13.6869940625Q10.3187480078125,13.7218140625,10.2777980078125,13.7491740625Q10.236848007812501,13.7765340625,10.1913580078125,13.7953840625Q10.1458580078125,13.8142240625,10.0975580078125,13.8238340625Q10.049258007812501,13.8334440625,10.0000180078125,13.8334440625Q9.903888007812501,13.8334440625,9.814608007812499,13.7977940625Q9.7253280078125,13.762154062499999,9.655638007812499,13.6959440625L9.655018007812501,13.6953540625L4.1001580078125,8.418235062499999L4.1000830078125,8.4181640625Q4.0255590078125,8.3473660625,3.9850090078125,8.2529110625Q3.9444580078125,8.1584560625,3.9444580078125,8.0556640625Q3.9444580078125,8.0064183625,3.9540650078125,7.9581189625Q3.9636730078125,7.9098190625,3.9825180078124998,7.8643220625Q4.0013640078125,7.8188250625,4.0287230078125,7.7778790625Q4.0560830078125,7.7369330625,4.0909050078125,7.7021110625Q4.1257270078125,7.6672890625,4.1666730078125,7.6399290625Q4.2076190078125,7.6125700625,4.2531160078125,7.5937240625Q4.2986130078125,7.5748790625,4.3469129078125,7.5652710625Q4.3952123078125,7.5556640625,4.4444580078125,7.5556640625Q4.5405872078125,7.5556640625,4.6298630078125,7.5913100625Q4.7191390078125,7.6269550625,4.7888330078125,7.6931640625L4.7889080078125,7.6932360625000005Z"
                fill-rule="evenodd" fill="#FFFFFF" fill-opacity="1" />
        </g>
        <g transform="matrix(-1,0,0,1,31.111083984375,0)">
            <path
                d="M15.8999919921875,7.6932360625000005L21.4554719921875,12.9709440625Q21.5299919921875,13.041744062500001,21.5705519921875,13.1361940625Q21.6111019921875,13.230654062500001,21.6111019921875,13.3334440625Q21.6111019921875,13.382684062500001,21.6014919921875,13.4309840625Q21.5918819921875,13.4792840625,21.5730419921875,13.5247840625Q21.554191992187498,13.5702840625,21.5268319921875,13.6112240625Q21.4994719921875,13.6521740625,21.4646519921875,13.6869940625Q21.429831992187502,13.7218140625,21.3888819921875,13.7491740625Q21.3479319921875,13.7765340625,21.3024419921875,13.7953840625Q21.2569419921875,13.8142240625,21.208641992187502,13.8238340625Q21.1603419921875,13.8334440625,21.1111019921875,13.8334440625Q21.0149719921875,13.8334440625,20.9256919921875,13.7977940625Q20.8364119921875,13.762154062499999,20.7667219921875,13.6959440625L20.7661019921875,13.6953540625L15.2112419921875,8.418235062499999L15.2111669921875,8.4181640625Q15.1366429921875,8.3473660625,15.0960929921875,8.2529110625Q15.0555419921875,8.1584560625,15.0555419921875,8.0556640625Q15.0555419921875,8.0064183625,15.0651489921875,7.9581189625Q15.074756992187499,7.9098190625,15.0936019921875,7.8643220625Q15.1124479921875,7.8188250625,15.1398069921875,7.7778790625Q15.1671669921875,7.7369330625,15.2019889921875,7.7021110625Q15.2368109921875,7.6672890625,15.2777569921875,7.6399290625Q15.3187029921875,7.6125700625,15.3641999921875,7.5937240625Q15.4096969921875,7.5748790625,15.4579968921875,7.5652710625Q15.5062962921875,7.5556640625,15.5555419921875,7.5556640625Q15.6516711921875,7.5556640625,15.7409469921875,7.5913100625Q15.8302229921875,7.6269550625,15.8999169921875,7.6931640625L15.8999919921875,7.6932360625000005Z"
                fill-rule="evenodd" fill="#FFFFFF" fill-opacity="1" />
        </g>
        <g>
            <path
                d="M3.888916015625,16.166748046875L16.111116015625,16.166748046875Q16.160416015625,16.166748046875,16.208716015625,16.176355046875Q16.257016015625,16.185963046875,16.302516015625002,16.204808046875Q16.348016015625,16.223654046875,16.388916015625,16.251013046875Q16.429916015625,16.278373046875,16.464716015625,16.313195046875Q16.499516015624998,16.348017046875,16.526916015624998,16.388963046875Q16.554216015625002,16.429909046875,16.573116015625,16.475406046875Q16.591916015625,16.520903046875,16.601516015625002,16.569202946875Q16.611116015625,16.617502346875,16.611116015625,16.666748046875Q16.611116015625,16.715993746875,16.601516015625002,16.764293146875Q16.591916015625,16.812593046875,16.573116015625,16.858090046875Q16.554216015625002,16.903587046875,16.526916015624998,16.944533046875Q16.499516015624998,16.985479046875,16.464716015625,17.020301046875Q16.429916015625,17.055123046875,16.388916015625,17.082483046875Q16.348016015625,17.109842046875,16.302516015625002,17.128688046875Q16.257016015625,17.147533046875,16.208716015625,17.157141046875Q16.160416015625,17.166748046875,16.111116015625,17.166748046875L3.888916015625,17.166748046875Q3.839670315625,17.166748046875,3.791370915625,17.157141046875Q3.743071015625,17.147533046875,3.697574015625,17.128688046875Q3.652077015625,17.109842046875,3.611131015625,17.082483046875Q3.570185015625,17.055123046875,3.535363015625,17.020301046875Q3.500541015625,16.985479046875,3.473181015625,16.944533046875Q3.445822015625,16.903587046875,3.4269760156249998,16.858090046875Q3.408131015625,16.812593046875,3.398523015625,16.764293146875Q3.388916015625,16.715993746875,3.388916015625,16.666748046875Q3.388916015625,16.617502346875,3.398523015625,16.569202946875Q3.408131015625,16.520903046875,3.4269760156249998,16.475406046875Q3.445822015625,16.429909046875,3.473181015625,16.388963046875Q3.500541015625,16.348017046875,3.535363015625,16.313195046875Q3.570185015625,16.278373046875,3.611131015625,16.251013046875Q3.652077015625,16.223654046875,3.697574015625,16.204808046875Q3.743071015625,16.185963046875,3.791370915625,16.176355046875Q3.839670315625,16.166748046875,3.888916015625,16.166748046875Z"
                fill-rule="evenodd" fill="#FFFFFF" fill-opacity="1" />
        </g>
    </g>
</svg>