<svg xmlns="http://www.w3.org/2000/svg" fill="none" version="1.1" width="11" height="11" viewBox="0 0 11 11">
    <g>
        <g>
            <path
                d="M5.5,11Q5.63502,11,5.76987,10.9934Q5.90473,10.9867,6.03909,10.9735Q6.17346,10.9603,6.30702,10.9405Q6.44057,10.9207,6.573,10.8943Q6.70542,10.868,6.83639,10.8352Q6.96736,10.8024,7.09657,10.7632Q7.22577,10.724,7.35289,10.6785Q7.48002,10.633,7.60476,10.5813Q7.7295,10.5297,7.85155,10.4719Q7.97361,10.4142,8.09268,10.3506Q8.21176,10.2869,8.32756,10.2175Q8.44337,10.1481,8.55564,10.0731Q8.6679,9.99807,8.77635,9.91764Q8.88479,9.83721,8.98916,9.75156Q9.09353,9.6659,9.19357,9.57523Q9.29361,9.48456,9.38909,9.38909Q9.48456,9.29361,9.57523,9.19357Q9.6659,9.09353,9.75156,8.98916Q9.83721,8.88479,9.91764,8.77635Q9.99807,8.6679,10.0731,8.55564Q10.1481,8.44337,10.2175,8.32756Q10.2869,8.21176,10.3506,8.09268Q10.4142,7.97361,10.4719,7.85155Q10.5297,7.7295,10.5813,7.60476Q10.633,7.48002,10.6785,7.35289Q10.724,7.22577,10.7632,7.09657Q10.8024,6.96736,10.8352,6.83639Q10.868,6.70542,10.8943,6.573Q10.9207,6.44057,10.9405,6.30702Q10.9603,6.17346,10.9735,6.03909Q10.9867,5.90473,10.9934,5.76987Q11,5.63502,11,5.5Q11,5.36498,10.9934,5.23013Q10.9867,5.09527,10.9735,4.96091Q10.9603,4.82654,10.9405,4.69298Q10.9207,4.55943,10.8943,4.427Q10.868,4.29458,10.8352,4.16361Q10.8024,4.03264,10.7632,3.90343Q10.724,3.77423,10.6785,3.64711Q10.633,3.51998,10.5813,3.39524Q10.5297,3.2705,10.4719,3.14845Q10.4142,3.02639,10.3506,2.90732Q10.2869,2.78824,10.2175,2.67243Q10.1481,2.55663,10.0731,2.44436Q9.99807,2.3321,9.91764,2.22365Q9.83721,2.11521,9.75156,2.01084Q9.6659,1.90647,9.57523,1.80643Q9.48456,1.70638,9.38909,1.61091Q9.29361,1.51544,9.19357,1.42477Q9.09353,1.3341,8.98916,1.24844Q8.88479,1.16279,8.77635,1.08236Q8.6679,1.00193,8.55564,0.926917Q8.44337,0.851905,8.32756,0.782493Q8.21176,0.71308,8.09268,0.649433Q7.97361,0.585786,7.85155,0.528059Q7.7295,0.470331,7.60476,0.418662Q7.48002,0.366994,7.35289,0.321508Q7.22577,0.276022,7.09657,0.236828Q6.96736,0.197635,6.83639,0.164828Q6.70542,0.132022,6.573,0.105681Q6.44057,0.0793403,6.30702,0.0595292Q6.17346,0.039718,6.03909,0.026484Q5.90473,0.01325,5.76987,0.00662499Q5.63502,0,5.5,0Q5.36498,0,5.23013,0.00662499Q5.09527,0.01325,4.96091,0.026484Q4.82654,0.039718,4.69298,0.0595292Q4.55943,0.0793403,4.427,0.105681Q4.29458,0.132022,4.16361,0.164828Q4.03264,0.197635,3.90343,0.236828Q3.77423,0.276022,3.64711,0.321508Q3.51998,0.366994,3.39524,0.418662Q3.2705,0.470331,3.14845,0.528059Q3.02639,0.585786,2.90732,0.649433Q2.78824,0.71308,2.67243,0.782493Q2.55663,0.851905,2.44436,0.926917Q2.3321,1.00193,2.22365,1.08236Q2.11521,1.16279,2.01084,1.24844Q1.90647,1.3341,1.80643,1.42477Q1.70638,1.51544,1.61091,1.61091Q1.51544,1.70638,1.42477,1.80643Q1.3341,1.90647,1.24844,2.01084Q1.16279,2.11521,1.08236,2.22365Q1.00193,2.3321,0.926917,2.44436Q0.851905,2.55663,0.782493,2.67243Q0.71308,2.78824,0.649433,2.90732Q0.585786,3.02639,0.528059,3.14845Q0.470331,3.2705,0.418662,3.39524Q0.366994,3.51998,0.321508,3.64711Q0.276022,3.77423,0.236828,3.90343Q0.197635,4.03264,0.164828,4.16361Q0.132022,4.29458,0.105681,4.427Q0.0793403,4.55943,0.0595292,4.69298Q0.039718,4.82654,0.026484,4.96091Q0.01325,5.09527,0.00662499,5.23013Q0,5.36498,0,5.5Q0,5.63502,0.00662499,5.76987Q0.01325,5.90473,0.026484,6.03909Q0.039718,6.17346,0.0595292,6.30702Q0.0793403,6.44057,0.105681,6.573Q0.132022,6.70542,0.164828,6.83639Q0.197635,6.96736,0.236828,7.09657Q0.276022,7.22577,0.321508,7.35289Q0.366994,7.48002,0.418662,7.60476Q0.470331,7.7295,0.528059,7.85155Q0.585786,7.97361,0.649433,8.09268Q0.71308,8.21176,0.782493,8.32756Q0.851905,8.44337,0.926917,8.55564Q1.00193,8.6679,1.08236,8.77635Q1.16279,8.88479,1.24844,8.98916Q1.3341,9.09353,1.42477,9.19357Q1.51544,9.29361,1.61091,9.38909Q1.70638,9.48456,1.80643,9.57523Q1.90647,9.6659,2.01084,9.75156Q2.11521,9.83721,2.22365,9.91764Q2.3321,9.99807,2.44436,10.0731Q2.55663,10.1481,2.67243,10.2175Q2.78824,10.2869,2.90732,10.3506Q3.02639,10.4142,3.14845,10.4719Q3.2705,10.5297,3.39524,10.5813Q3.51998,10.633,3.64711,10.6785Q3.77423,10.724,3.90343,10.7632Q4.03264,10.8024,4.16361,10.8352Q4.29458,10.868,4.427,10.8943Q4.55943,10.9207,4.69298,10.9405Q4.82654,10.9603,4.96091,10.9735Q5.09527,10.9867,5.23013,10.9934Q5.36498,11,5.5,11ZM8.68198,2.31802Q10,3.63604,10,5.5Q10,7.36396,8.68198,8.68198Q7.36396,10,5.5,10Q3.63604,10,2.31802,8.68198Q1,7.36396,1,5.5Q1,3.63604,2.31802,2.31802Q3.63604,1,5.5,1Q7.36396,1,8.68198,2.31802Z"
                fill-rule="evenodd" fill="#FFFFFF" fill-opacity="1" />
        </g>
        <g>
            <path
                d="M4,7.09788C4,7.49059,4.4319749999999996,7.73002,4.765,7.52188L7.3216,5.9239999999999995C7.63494,5.72817,7.63494,5.27183,7.3216,5.0760000000000005L4.7649989999999995,3.478125C4.4319749999999996,3.269985,4,3.5094060000000002,4,3.902124L4,7.09788Z"
                fill="#FFFFFF" fill-opacity="1" />
        </g>
    </g>
</svg>