<svg xmlns="http://www.w3.org/2000/svg" fill="none" version="1.1" width="24" height="24" viewBox="0 0 24 24">
    <g>
        <g>
            <g>
                <ellipse cx="12" cy="12" rx="5" ry="5" fill-opacity="0" stroke-opacity="1" stroke="#FFFFFF" fill="none"
                    stroke-width="2" />
            </g>
            <g>
                <rect x="11" y="0" width="2" height="4" rx="1" fill="#FFFFFF" fill-opacity="1" />
            </g>
            <g transform="matrix(0.7071067690849304,0.7071067690849304,-0.7071067690849304,0.7071067690849304,7.778175090396843,-13.162951140031481)">
                <rect x="19.778175354003906" y="2.8076119422912598" width="2" height="4" rx="1" fill="#FFFFFF"
                    fill-opacity="1" />
            </g>
            <g transform="matrix(0,1,-1,0,35,-13)">
                <rect x="24" y="11" width="2" height="4" rx="1" fill="#FFFFFF" fill-opacity="1" />
            </g>
            <g transform="matrix(-0.7071067690849304,0.7071067690849304,-0.7071067690849304,-0.7071067690849304,50.1630540944999,18.778423100743453)">
                <rect x="21.1923885345459" y="19.7783203125" width="2" height="4" rx="1" fill="#FFFFFF"
                    fill-opacity="1" />
            </g>
            <g transform="matrix(-1,1.2246468525851679e-16,-1.2246468525851679e-16,-1,26.000000000000004,48)">
                <rect x="13" y="24" width="2" height="4" rx="1" fill="#FFFFFF" fill-opacity="1" />
            </g>
            <g transform="matrix(-0.7071067690849304,-0.7071067690849304,0.7071067690849304,-0.7071067690849304,-7.778174326761871,39.162951379824165)">
                <rect x="4.22182559967041" y="21.1923885345459" width="2" height="4" rx="1" fill="#FFFFFF"
                    fill-opacity="1" />
            </g>
            <g transform="matrix(0,-1,1,0,-13,13)">
                <rect x="0" y="13" width="2" height="4" rx="1" fill="#FFFFFF" fill-opacity="1" />
            </g>
            <g transform="matrix(0.7071067690849304,-0.7071067690849304,0.7071067690849304,0.7071067690849304,-2.1628477510061828,3.221782812918235)">
                <rect x="2.8076119422912598" y="4.2216796875" width="2" height="4" rx="1" fill="#FFFFFF"
                    fill-opacity="1" />
            </g>
        </g>
    </g>
</svg>