<svg xmlns="http://www.w3.org/2000/svg" fill="none" version="1.1" width="28" height="28" viewBox="0 0 28 28">
    <g>
        <g style="opacity:0;"></g>
        <g transform="matrix(0.7071067690849304,0.7071067690849304,-0.7071067690849304,0.7071067690849304,7.171572923660278,-5.313708305358887)">
            <path
                d="M9,6Q9,5.9015086,9.019214999999999,5.80491Q9.03843,5.708311,9.076121,5.617317Q9.113812,5.526322,9.16853,5.44443Q9.223249,5.362537,9.292893,5.292893Q9.362537,5.223249,9.44443,5.16853Q9.526322,5.113812,9.617317,5.076121Q9.708311,5.03843,9.80491,5.019215Q9.9015086,5,10,5Q10.0984914,5,10.19509,5.019215Q10.291689,5.03843,10.382683,5.076121Q10.473678,5.113812,10.55557,5.16853Q10.637463,5.223249,10.707107,5.292893Q10.776751,5.362537,10.83147,5.44443Q10.886188,5.526322,10.923879,5.617317Q10.96157,5.708311,10.980785000000001,5.80491Q11,5.9015086,11,6L11,16L21,16Q21.0985,16,21.1951,16.019199999999998Q21.2917,16.0384,21.3827,16.0761Q21.4737,16.113799999999998,21.5556,16.1685Q21.6375,16.2232,21.7071,16.2929Q21.776699999999998,16.3625,21.8315,16.4444Q21.886200000000002,16.5263,21.9239,16.6173Q21.9616,16.7083,21.980800000000002,16.8049Q22,16.9015,22,17Q22,17.0985,21.980800000000002,17.1951Q21.9616,17.2917,21.9239,17.3827Q21.886200000000002,17.4737,21.8315,17.5556Q21.776699999999998,17.6375,21.7071,17.7071Q21.6375,17.776699999999998,21.5556,17.8315Q21.4737,17.886200000000002,21.3827,17.9239Q21.2917,17.9616,21.1951,17.980800000000002Q21.0985,18,21,18L9,18L9,6Z"
                fill-rule="evenodd" fill="#FFFFFF" fill-opacity="1" />
        </g>
    </g>
</svg>