<svg xmlns="http://www.w3.org/2000/svg" fill="none" version="1.1" width="40" height="40" viewBox="0 0 40 40">
    <g style="opacity:0.20000000298023224;">
        <g style="opacity:0;">
            <rect x="0" y="0" width="40" height="40" rx="0" fill="#D8D8D8" fill-opacity="1" />
        </g>
        <g>
            <path
                d="M0.891845703125,7.259765625L0.891845703125,32.740315625C0.891845703125,34.033315625,1.942665703125,35.084015625,4.902265703125,35.084015625L36.764245703125,35.084015625C38.057245703125,35.084015625,39.107945703125,34.033315625,39.107945703125,32.740315625L39.107945703125,7.259765625C39.107945703125,5.966795625,38.057245703125,4.916015625,36.764245703125,4.916015625L4.902265703125,4.916015625C1.942665703125,4.916015625,0.891844908396,5.962895625,0.891845703125,7.259765625ZM15.886645703125,9.056635625C17.999945703125,9.056635625,19.714745703125,10.771485625,19.714745703125,12.884765625C19.714745703125,14.998015625,17.999945703125,16.712915625,15.886645703125,16.712915625C13.773345703125,16.712915625,12.058545703125,14.998015625,12.058545703125,12.884765625C12.058545703125,10.771485625,13.773345703125,9.056635625,15.886645703125,9.056635625ZM33.105345703125,30.345715625L6.898355703125,30.345715625C6.327245703125,30.345715625,5.960345703125,29.757715625,6.182035703125,29.253615625C6.206505703125,29.198015625,6.234365703125,29.145715625,6.257885703125,29.089615625L9.300775703125,21.835615625C9.324135703125,21.779915625,9.349905703125,21.726815625,9.381525703125,21.675315625C10.613375703125,19.670315625,13.561545703125,19.695815625,14.749745703125,21.751715625C14.749945703125,21.752115625,14.750045703125,21.752115625,14.750245703125,21.752515625L16.190645703125,24.250715625C16.191045703125,24.251515625,16.191345703125002,24.252015625,16.191845703125,24.252815625C16.821045703125,25.337815625,18.410245703125,25.279015625,18.953045703125,24.146515625L23.648345703125,14.365235625C24.493145703125,12.605925625000001,26.987045703125,12.591905624999999,27.854345703125,14.326985625C27.868245703125,14.354725625,27.880645703125,14.383545625,27.892145703125,14.412335625L33.789545703125,29.181015625C33.802145703125,29.212715625,33.816145703125,29.242915625,33.829045703125,29.274415625C34.035945703125,29.779115625,33.662645703125,30.345715625,33.105345703125,30.345715625Z"
                fill="#FFFFFF" fill-opacity="1" />
        </g>
    </g>
</svg>