<svg xmlns="http://www.w3.org/2000/svg" fill="none" version="1.1" width="36" height="36" viewBox="0 0 36 36">
    <g>
        <g>
            <ellipse cx="25.833251953125" cy="23.833251953125" rx="5.5" ry="5.5" fill-opacity="0" stroke-opacity="1"
                stroke="#FFFFFF" fill="none" stroke-width="2" stroke-linecap="ROUND" />
        </g>
        <g transform="matrix(0.7071067690849304,0.7071067690849304,-0.7071067690849304,0.7071067690849304,21.58578646183014,-10.112697839736938)">
            <path
                d="M23,20L32,20Q32.09849,20,32.19509,20.019215Q32.29169,20.038429999999998,32.38268,20.076121Q32.47368,20.113812,32.55557,20.16853Q32.637460000000004,20.223249,32.70711,20.292893Q32.77675,20.362537,32.831469999999996,20.44443Q32.88619,20.526322,32.92388,20.617317Q32.96157,20.708311,32.980779999999996,20.80491Q33,20.9015086,33,21Q33,21.0984914,32.980779999999996,21.19509Q32.96157,21.291689,32.92388,21.382683Q32.88619,21.473678,32.831469999999996,21.55557Q32.77675,21.637463,32.70711,21.707107Q32.637460000000004,21.776751,32.55557,21.83147Q32.47368,21.886188,32.38268,21.923879Q32.29169,21.961570000000002,32.19509,21.980785Q32.09849,22,32,22L23,22Q22.9015086,22,22.80491,21.980785Q22.708311,21.961570000000002,22.617317,21.923879Q22.526322,21.886188,22.44443,21.83147Q22.362537,21.776751,22.292893,21.707107Q22.223249,21.637463,22.16853,21.55557Q22.113812,21.473678,22.076121,21.382683Q22.038429999999998,21.291689,22.019215,21.19509Q22,21.0984914,22,21Q22,20.9015086,22.019215,20.80491Q22.038429999999998,20.708311,22.076121,20.617317Q22.113812,20.526322,22.16853,20.44443Q22.223249,20.362537,22.292893,20.292893Q22.362537,20.223249,22.44443,20.16853Q22.526322,20.113812,22.617317,20.076121Q22.708311,20.038429999999998,22.80491,20.019215Q22.9015086,20,23,20Z"
                fill-rule="evenodd" fill="#FFFFFF" fill-opacity="1" />
        </g>
        <g>
            <path
                d="M8.025538046874999,30.333251953125L17.294248046874998,30.333251953125Q17.392748046875,30.333251953125,17.489348046875,30.314051953125Q17.585948046875,30.294851953125,17.676948046874998,30.257151953125Q17.767948046875,30.219451953125,17.849848046875,30.164751953125Q17.931748046875,30.109951953125,18.001348046875002,30.040351953125Q18.071048046875,29.970751953125,18.125748046875,29.888851953125Q18.180448046875,29.806951953125,18.218148046875,29.715951953125Q18.255848046875002,29.624951953125,18.275048046875,29.528351953125Q18.294248046874998,29.431751953125,18.294248046874998,29.333251953125Q18.294248046874998,29.234751953125,18.275048046875,29.138151953125Q18.255848046875002,29.041551953125,18.218148046875,28.950551953125Q18.180448046875,28.859551953125,18.125748046875,28.777651953125Q18.071048046875,28.695751953125,18.001348046875002,28.626151953125Q17.931748046875,28.556451953125,17.849848046875,28.501751953125Q17.767948046875,28.447051953125,17.676948046874998,28.409351953125Q17.585948046875,28.371651953125,17.489348046875,28.352451953125Q17.392748046875,28.333251953125,17.294248046874998,28.333251953125L8.025538046874999,28.333251953125Q5.666748046875,28.333251953125,5.666748046875,25.974451953125L5.666748046875,9.692041953124999Q5.666748046875,8.715001953125,6.357618046875,8.024121953125Q7.048498046875,7.333251953125,8.025538046874999,7.333251953125L24.307948046875,7.333251953125Q26.666748046875,7.333251953125,26.666748046875,9.692041953124999L26.666748046875,13.631301953125Q26.666748046875,13.729791953125,26.685948046875,13.826391953125Q26.705148046875,13.922991953124999,26.742848046875,14.013981953125Q26.780548046875,14.104981953125,26.835248046875,14.186871953125Q26.889948046875,14.268761953125,26.959648046875,14.338411953125Q27.029248046875,14.408051953125,27.111148046875,14.462771953125Q27.193048046875,14.517491953125,27.284048046875,14.555181953125Q27.375048046875,14.592871953125,27.471648046875,14.612081953125Q27.568248046875,14.631301953125,27.666748046875,14.631301953125Q27.765248046875,14.631301953125,27.861848046875,14.612081953125Q27.958448046875,14.592871953125,28.049448046875,14.555181953125Q28.140448046875,14.517491953125,28.222348046875,14.462771953125Q28.304248046875,14.408051953125,28.373848046875,14.338411953125Q28.443448046875,14.268761953125,28.498248046875,14.186871953125Q28.552948046875,14.104981953125,28.590648046875,14.013981953125Q28.628348046875,13.922991953124999,28.647548046875,13.826391953125Q28.666748046875,13.729791953125,28.666748046875,13.631301953125L28.666748046875,9.692041953124999Q28.666748046875,7.886571953125,27.390048046875,6.609910953125Q26.113448046875,5.333251953125,24.307948046875,5.333251953125L8.025538046874999,5.333251953125Q6.220068046875,5.333251953125,4.943407046875,6.609910953125Q3.666748046875,7.886571953125,3.666748046875,9.692041953124999L3.666748046875,25.974451953125Q3.666748046875,27.779951953125,4.943407046875,29.056551953125Q6.220068046875,30.333251953125,8.025538046874999,30.333251953125Z"
                fill-rule="evenodd" fill="#FFFFFF" fill-opacity="1" />
        </g>
        <g>
            <path
                d="M10.666748046875,22L8.666748046875,22Q8.568256646875,22,8.471658046875,21.980785Q8.375059046875,21.961570000000002,8.284065046875,21.923879Q8.193070046875,21.886188,8.111178046875,21.83147Q8.029285046875,21.776751,7.959641046875,21.707107Q7.889997046875,21.637463,7.835278046875,21.55557Q7.780560046875,21.473678,7.742869046875,21.382683Q7.705178046875,21.291689,7.685963046875,21.19509Q7.666748046875,21.0984914,7.666748046875,21Q7.666748046875,20.9015086,7.685963046875,20.80491Q7.705178046875,20.708311,7.742869046875,20.617317Q7.780560046875,20.526322,7.835278046875,20.44443Q7.889997046875,20.362537,7.959641046875,20.292893Q8.029285046875,20.223249,8.111178046875,20.16853Q8.193070046875,20.113812,8.284065046875,20.076121Q8.375059046875,20.038429999999998,8.471658046875,20.019215Q8.568256646875,20,8.666748046875,20L10.666748046875,20Q10.765238046875,20,10.861838046875,20.019215Q10.958438046875,20.038429999999998,11.049428046875,20.076121Q11.140428046875,20.113812,11.222318046875,20.16853Q11.304208046875,20.223249,11.373858046875,20.292893Q11.443498046875,20.362537,11.498218046875,20.44443Q11.552938046875,20.526322,11.590628046875,20.617317Q11.628318046875,20.708311,11.647528046875,20.80491Q11.666748046875,20.9015086,11.666748046875,21Q11.666748046875,21.0984914,11.647528046875,21.19509Q11.628318046875,21.291689,11.590628046875,21.382683Q11.552938046875,21.473678,11.498218046875,21.55557Q11.443498046875,21.637463,11.373858046875,21.707107Q11.304208046875,21.776751,11.222318046875,21.83147Q11.140428046875,21.886188,11.049428046875,21.923879Q10.958438046875,21.961570000000002,10.861838046875,21.980785Q10.765238046875,22,10.666748046875,22Z"
                fill-rule="evenodd" fill="#FFFFFF" fill-opacity="1" />
        </g>
        <g>
            <path
                d="M14,20L17,20Q17.098489999999998,20,17.19509,20.019215Q17.29169,20.038429999999998,17.38268,20.076121Q17.47368,20.113812,17.55557,20.16853Q17.63746,20.223249,17.70711,20.292893Q17.77675,20.362537,17.83147,20.44443Q17.88619,20.526322,17.92388,20.617317Q17.961570000000002,20.708311,17.98078,20.80491Q18,20.9015086,18,21Q18,21.0984914,17.98078,21.19509Q17.961570000000002,21.291689,17.92388,21.382683Q17.88619,21.473678,17.83147,21.55557Q17.77675,21.637463,17.70711,21.707107Q17.63746,21.776751,17.55557,21.83147Q17.47368,21.886188,17.38268,21.923879Q17.29169,21.961570000000002,17.19509,21.980785Q17.098489999999998,22,17,22L14,22Q13.9015086,22,13.80491,21.980785Q13.708311,21.961570000000002,13.617317,21.923879Q13.526322,21.886188,13.44443,21.83147Q13.362537,21.776751,13.292893,21.707107Q13.223249,21.637463,13.16853,21.55557Q13.113812,21.473678,13.076121,21.382683Q13.03843,21.291689,13.019214999999999,21.19509Q13,21.0984914,13,21Q13,20.9015086,13.019214999999999,20.80491Q13.03843,20.708311,13.076121,20.617317Q13.113812,20.526322,13.16853,20.44443Q13.223249,20.362537,13.292893,20.292893Q13.362537,20.223249,13.44443,20.16853Q13.526322,20.113812,13.617317,20.076121Q13.708311,20.038429999999998,13.80491,20.019215Q13.9015086,20,14,20Z"
                fill-rule="evenodd" fill="#FFFFFF" fill-opacity="1" />
        </g>
    </g>
</svg>