<svg xmlns="http://www.w3.org/2000/svg" fill="none" version="1.1" width="36" height="36" viewBox="0 0 36 36">
    <g>
        <g></g>
        <g>
            <rect x="3.25" y="17.875" width="4.75" height="11.5" rx="1.25" fill-opacity="0" stroke-opacity="1"
                stroke="#ffffff" fill="none" stroke-width="2" />
        </g>
        <g>
            <rect x="28" y="17.875" width="4.75" height="11.5" rx="1.25" fill-opacity="0" stroke-opacity="1"
                stroke="#ffffff" fill="none" stroke-width="2" />
        </g>
        <g>
            <path
                d="M27,16L27,22L29,22L29,16Q29,13.76272,28.1352,11.718Q27.3001,9.74379,25.7782,8.22183Q24.2562,6.699868,22.282,5.864846Q20.237299999999998,5.000001,18,5.000001Q15.76272,5,13.718,5.864845Q11.743780000000001,6.699867,10.22183,8.22183Q8.699869,9.743780000000001,7.864846,11.718Q7.000001,13.76272,7.000001,16L7,22L9,22L9,16Q9,14.16829,9.70686,12.4971Q10.38992,10.882159999999999,11.63604,9.63604Q12.882159999999999,8.38992,14.4971,7.70685Q16.16829,7,18,7Q19.831699999999998,7,21.5029,7.70686Q23.117800000000003,8.38992,24.364,9.63604Q25.6101,10.88217,26.2931,12.4971Q27,14.16829,27,16Z"
                fill-rule="evenodd" fill="#ffffff" fill-opacity="1" />
        </g>
        <g>
            <path
                d="M22.3517,23.5L25.875,23.5L25.875,21.5L21.5233,21.5L19.842930000000003,23.18036L16.52724,18.20684L12.57545,21.5L10.125,21.5L10.125,23.5L13.29955,23.5L16.09776,21.16816L19.532069999999997,26.31964L22.3517,23.5Z"
                fill-rule="evenodd" fill="#ffffff" fill-opacity="1" />
        </g>
    </g>
</svg>