<svg xmlns="http://www.w3.org/2000/svg" fill="none" version="1.1" width="27.71856689453125" height="27.71856689453125"
    viewBox="0 0 27.71856689453125 27.71856689453125">
    <g style="opacity:0.6000000238418579;">
        <g></g>
        <g transform="matrix(0.7071067690849304,-0.7071067690849304,0.7071067690849304,0.7071067690849304,-9.468616065560752,4.859284307379141)">
            <g>
                <g transform="matrix(0,1,-1,0,23.990639686584473,3.7279062271118164)">
                    <path
                        d="M10.131366729736328,13.059272956848144L28.131366729736328,13.059272956848144Q28.21016672973633,13.059272956848144,28.287466729736327,13.074644956848145Q28.364666729736328,13.090016956848144,28.43746672973633,13.120168956848145Q28.51026672973633,13.150321956848144,28.57586672973633,13.194096956848144Q28.64136672973633,13.237871956848144,28.697066729736328,13.293587956848144Q28.75276672973633,13.349302956848145,28.796566729736327,13.414816956848144Q28.840266729736328,13.480330956848144,28.87046672973633,13.553125956848145Q28.90066672973633,13.625921956848144,28.91596672973633,13.703200956848145Q28.93136672973633,13.780479856848144,28.93136672973633,13.859272956848145Q28.93136672973633,13.938066056848145,28.91596672973633,14.015344956848145Q28.90066672973633,14.092623956848145,28.87046672973633,14.165419956848144Q28.840266729736328,14.238214956848145,28.796566729736327,14.303728956848145Q28.75276672973633,14.369242956848144,28.697066729736328,14.424957956848145Q28.64136672973633,14.480673956848145,28.57586672973633,14.524448956848145Q28.51026672973633,14.568223956848145,28.43746672973633,14.598376956848144Q28.364666729736328,14.628528956848145,28.287466729736327,14.643900956848144Q28.21016672973633,14.659272956848145,28.131366729736328,14.659272956848145L10.131366729736328,14.659272956848145Q10.052573629736328,14.659272956848145,9.975294729736328,14.643900956848144Q9.898015729736327,14.628528956848145,9.825219729736329,14.598376956848144Q9.752424729736328,14.568223956848145,9.686910729736327,14.524448956848145Q9.621396729736329,14.480673956848145,9.565681729736328,14.424957956848145Q9.509965729736328,14.369242956848144,9.466190729736327,14.303728956848145Q9.422415729736327,14.238214956848145,9.392262729736329,14.165419956848144Q9.362110729736328,14.092623956848145,9.346738729736328,14.015344956848145Q9.331366729736327,13.938066056848145,9.331366729736327,13.859272956848145Q9.331366729736327,13.780479856848144,9.346738729736328,13.703200956848145Q9.362110729736328,13.625921956848144,9.392262729736329,13.553125956848145Q9.422415729736327,13.480330956848144,9.466190729736327,13.414816956848144Q9.509965729736328,13.349302956848145,9.565681729736328,13.293587956848144Q9.621396729736329,13.237871956848144,9.686910729736327,13.194096956848144Q9.752424729736328,13.150321956848144,9.825219729736329,13.120168956848145Q9.898015729736327,13.090016956848144,9.975294729736328,13.074644956848145Q10.052573629736328,13.059272956848144,10.131366729736328,13.059272956848144Z"
                        fill-rule="evenodd" fill="#333333" fill-opacity="1" />
                </g>
                <g>
                    <path
                        d="M1.1313667297363281,22.059272956848144L19.131366729736328,22.059272956848144Q19.21016672973633,22.059272956848144,19.287466729736327,22.074644956848143Q19.364666729736328,22.090016956848146,19.43746672973633,22.120168956848143Q19.51026672973633,22.150321956848146,19.57586672973633,22.194096956848146Q19.64136672973633,22.237871956848146,19.697066729736328,22.293587956848146Q19.75276672973633,22.349302956848145,19.796566729736327,22.414816956848146Q19.840266729736328,22.480330956848146,19.87046672973633,22.553125956848145Q19.90066672973633,22.625921956848146,19.91596672973633,22.703200956848143Q19.93136672973633,22.780479856848146,19.93136672973633,22.859272956848145Q19.93136672973633,22.938066056848143,19.91596672973633,23.015344956848146Q19.90066672973633,23.092623956848144,19.87046672973633,23.165419956848144Q19.840266729736328,23.238214956848143,19.796566729736327,23.303728956848143Q19.75276672973633,23.369242956848144,19.697066729736328,23.424957956848143Q19.64136672973633,23.480673956848143,19.57586672973633,23.524448956848143Q19.51026672973633,23.568223956848144,19.43746672973633,23.598376956848146Q19.364666729736328,23.628528956848143,19.287466729736327,23.643900956848146Q19.21016672973633,23.659272956848145,19.131366729736328,23.659272956848145L1.1313667297363281,23.659272956848145Q1.0525736297363282,23.659272956848145,0.9752947297363281,23.643900956848146Q0.8980157297363281,23.628528956848143,0.8252197297363282,23.598376956848146Q0.7524247297363281,23.568223956848144,0.6869107297363282,23.524448956848143Q0.6213967297363281,23.480673956848143,0.5656817297363281,23.424957956848143Q0.5099657297363281,23.369242956848144,0.46619072973632814,23.303728956848143Q0.4224157297363281,23.238214956848143,0.39226272973632814,23.165419956848144Q0.3621107297363281,23.092623956848144,0.34673872973632813,23.015344956848146Q0.3313667297363281,22.938066056848143,0.3313667297363281,22.859272956848145Q0.3313667297363281,22.780479856848146,0.34673872973632813,22.703200956848143Q0.3621107297363281,22.625921956848146,0.39226272973632814,22.553125956848145Q0.4224157297363281,22.480330956848146,0.46619072973632814,22.414816956848146Q0.5099657297363281,22.349302956848145,0.5656817297363281,22.293587956848146Q0.6213967297363281,22.237871956848146,0.6869107297363282,22.194096956848146Q0.7524247297363281,22.150321956848146,0.8252197297363282,22.120168956848143Q0.8980157297363281,22.090016956848146,0.9752947297363281,22.074644956848143Q1.0525736297363282,22.059272956848144,1.1313667297363281,22.059272956848144Z"
                        fill-rule="evenodd" fill="#333333" fill-opacity="1" />
                </g>
            </g>
        </g>
    </g>
</svg>