<svg xmlns="http://www.w3.org/2000/svg" fill="none" version="1.1" width="40" height="40" viewBox="0 0 40 40">
    <g>
        <g style="opacity:0.20000000298023224;">
            <rect x="0" y="0" width="40" height="40" rx="20" fill="#000000" fill-opacity="1" />
        </g>
        <g style="opacity:0.3341006338596344;"></g>
        <g>
            <rect x="13" y="18" width="14" height="10" rx="1" fill-opacity="0" stroke-opacity="1" stroke="#FFFFFF"
                fill="none" stroke-width="2" />
        </g>
        <g>
            <rect x="20" y="22" width="0" height="2" rx="0" fill-opacity="0" stroke-opacity="1" stroke="#FFFFFF"
                fill="none" stroke-width="2" />
        </g>
        <g>
            <path
                d="M23,15L23,17L25,17L25,15Q25,12.92893,23.53553,11.464466Q22.07107,10,20,10Q17.92893,10,16.464466,11.464466Q15,12.92893,15,15L15,17L17,17L17,15Q17,13.75736,17.87868,12.87868Q18.75736,12,20,12Q21.24264,12,22.12132,12.87868Q23,13.75736,23,15Z"
                fill-rule="evenodd" fill="#FFFFFF" fill-opacity="1" />
        </g>
    </g>
</svg>