<svg xmlns="http://www.w3.org/2000/svg" fill="none" version="1.1" width="36" height="36" viewBox="0 0 36 36">
    <g>
        <g>
            <ellipse cx="25.5" cy="23.5" rx="6.5" ry="6.5" fill="#3F76FC" fill-opacity="1" />
        </g>
        <g>
            <path
                d="M29.68788,22.725828Q29.83732,22.584196,29.91866,22.395047Q30,22.205897,30,22Q30,21.9015086,29.98078,21.80491Q29.961570000000002,21.708311,29.92388,21.617317Q29.88619,21.526322,29.83147,21.44443Q29.77675,21.362537,29.70711,21.292893Q29.63746,21.223249,29.55557,21.16853Q29.47368,21.113812,29.38268,21.076121Q29.29169,21.038429999999998,29.19509,21.019215Q29.098489999999998,21,29,21Q28.80805,21,28.62975,21.071068Q28.451439999999998,21.142136999999998,28.31212,21.274172L28.31202,21.274269L24.93873,24.47118L23.707107,23.23956Q23.566455,23.09891,23.382683,23.02279Q23.198912,22.946667,23,22.946667Q22.9015086,22.946667,22.80491,22.965881Q22.708311,22.985096,22.617317,23.02279Q22.526322,23.06048,22.44443,23.1152Q22.362537,23.16992,22.292893,23.23956Q22.223249,23.3092,22.16853,23.3911Q22.113812,23.47299,22.076121,23.56398Q22.038429999999998,23.65498,22.019215,23.75158Q22,23.84818,22,23.94667Q22,24.14558,22.07612,24.329349999999998Q22.152241,24.51312,22.292893,24.65377L24.21289,26.57377Q24.28134,26.642220000000002,24.36164,26.69627Q24.44195,26.750320000000002,24.53113,26.787959999999998Q24.62031,26.8256,24.71505,26.84544Q24.80979,26.86528,24.906579999999998,26.86658Q25.00337,26.86788,25.09861,26.85059Q25.19385,26.8333,25.28401,26.79806Q25.37417,26.76283,25.45589,26.71095Q25.53762,26.65908,25.60788,26.592489999999998L29.68777,22.725925L29.68788,22.725828Z"
                fill-rule="evenodd" fill="#FFFFFF" fill-opacity="1" />
        </g>
        <g>
            <path
                d="M8.025782187499999,30.33331298828125L17.294492187499998,30.33331298828125Q17.3929921875,30.33331298828125,17.4895921875,30.31411298828125Q17.5861921875,30.29491298828125,17.677192187499998,30.25721298828125Q17.7681921875,30.21951298828125,17.8500921875,30.16481298828125Q17.9319921875,30.11001298828125,18.001592187500002,30.04041298828125Q18.0712921875,29.97081298828125,18.1259921875,29.88891298828125Q18.1806921875,29.80701298828125,18.2183921875,29.71601298828125Q18.256092187500002,29.62501298828125,18.2752921875,29.52841298828125Q18.294492187499998,29.43181298828125,18.294492187499998,29.33331298828125Q18.294492187499998,29.23481298828125,18.2752921875,29.13821298828125Q18.256092187500002,29.04161298828125,18.2183921875,28.95061298828125Q18.1806921875,28.85961298828125,18.1259921875,28.77771298828125Q18.0712921875,28.69581298828125,18.001592187500002,28.62621298828125Q17.9319921875,28.55651298828125,17.8500921875,28.50181298828125Q17.7681921875,28.44711298828125,17.677192187499998,28.40941298828125Q17.5861921875,28.37171298828125,17.4895921875,28.35251298828125Q17.3929921875,28.33331298828125,17.294492187499998,28.33331298828125L8.025782187499999,28.33331298828125Q5.6669921875,28.33331298828125,5.6669921875,25.97451298828125L5.6669921875,9.692102988281249Q5.6669921875,8.71506298828125,6.3578621875,8.02418298828125Q7.0487421875,7.33331298828125,8.025782187499999,7.33331298828125L24.3081921875,7.33331298828125Q26.6669921875,7.33331298828125,26.6669921875,9.692102988281249L26.6669921875,13.63136298828125Q26.6669921875,13.72985298828125,26.6861921875,13.82645298828125Q26.7053921875,13.923052988281249,26.7430921875,14.01404298828125Q26.7807921875,14.10504298828125,26.8354921875,14.18693298828125Q26.8901921875,14.26882298828125,26.9598921875,14.33847298828125Q27.0294921875,14.40811298828125,27.1113921875,14.46283298828125Q27.1932921875,14.51755298828125,27.2842921875,14.55524298828125Q27.3752921875,14.59293298828125,27.4718921875,14.61214298828125Q27.5684921875,14.63136298828125,27.6669921875,14.63136298828125Q27.7654921875,14.63136298828125,27.8620921875,14.61214298828125Q27.9586921875,14.59293298828125,28.0496921875,14.55524298828125Q28.1406921875,14.51755298828125,28.2225921875,14.46283298828125Q28.3044921875,14.40811298828125,28.3740921875,14.33847298828125Q28.4436921875,14.26882298828125,28.4984921875,14.18693298828125Q28.5531921875,14.10504298828125,28.5908921875,14.01404298828125Q28.6285921875,13.923052988281249,28.6477921875,13.82645298828125Q28.6669921875,13.72985298828125,28.6669921875,13.63136298828125L28.6669921875,9.692102988281249Q28.6669921875,7.88663298828125,27.3902921875,6.60997198828125Q26.1136921875,5.33331298828125,24.3081921875,5.33331298828125L8.025782187499999,5.33331298828125Q6.2203121875,5.33331298828125,4.9436511875,6.60997198828125Q3.6669921875,7.88663298828125,3.6669921875,9.692102988281249L3.6669921875,25.97451298828125Q3.6669921875,27.78001298828125,4.9436511875,29.05661298828125Q6.2203121875,30.33331298828125,8.025782187499999,30.33331298828125Z"
                fill-rule="evenodd" fill="#FFFFFF" fill-opacity="1" />
        </g>
        <g>
            <path
                d="M10.6669921875,22L8.6669921875,22Q8.5685007875,22,8.4719021875,21.980785Q8.3753031875,21.961570000000002,8.2843091875,21.923879Q8.1933141875,21.886188,8.1114221875,21.83147Q8.0295291875,21.776751,7.9598851875,21.707107Q7.8902411875,21.637463,7.8355221875,21.55557Q7.7808041875,21.473678,7.7431131875,21.382683Q7.7054221875,21.291689,7.6862071875,21.19509Q7.6669921875,21.0984914,7.6669921875,21Q7.6669921875,20.9015086,7.6862071875,20.80491Q7.7054221875,20.708311,7.7431131875,20.617317Q7.7808041875,20.526322,7.8355221875,20.44443Q7.8902411875,20.362537,7.9598851875,20.292893Q8.0295291875,20.223249,8.1114221875,20.16853Q8.1933141875,20.113812,8.2843091875,20.076121Q8.3753031875,20.038429999999998,8.4719021875,20.019215Q8.5685007875,20,8.6669921875,20L10.6669921875,20Q10.7654821875,20,10.8620821875,20.019215Q10.9586821875,20.038429999999998,11.0496721875,20.076121Q11.1406721875,20.113812,11.2225621875,20.16853Q11.3044521875,20.223249,11.3741021875,20.292893Q11.4437421875,20.362537,11.4984621875,20.44443Q11.5531821875,20.526322,11.5908721875,20.617317Q11.6285621875,20.708311,11.6477721875,20.80491Q11.6669921875,20.9015086,11.6669921875,21Q11.6669921875,21.0984914,11.6477721875,21.19509Q11.6285621875,21.291689,11.5908721875,21.382683Q11.5531821875,21.473678,11.4984621875,21.55557Q11.4437421875,21.637463,11.3741021875,21.707107Q11.3044521875,21.776751,11.2225621875,21.83147Q11.1406721875,21.886188,11.0496721875,21.923879Q10.9586821875,21.961570000000002,10.8620821875,21.980785Q10.7654821875,22,10.6669921875,22Z"
                fill-rule="evenodd" fill="#FFFFFF" fill-opacity="1" />
        </g>
        <g>
            <path
                d="M14,20L17,20Q17.098489999999998,20,17.19509,20.019215Q17.29169,20.038429999999998,17.38268,20.076121Q17.47368,20.113812,17.55557,20.16853Q17.63746,20.223249,17.70711,20.292893Q17.77675,20.362537,17.83147,20.44443Q17.88619,20.526322,17.92388,20.617317Q17.961570000000002,20.708311,17.98078,20.80491Q18,20.9015086,18,21Q18,21.0984914,17.98078,21.19509Q17.961570000000002,21.291689,17.92388,21.382683Q17.88619,21.473678,17.83147,21.55557Q17.77675,21.637463,17.70711,21.707107Q17.63746,21.776751,17.55557,21.83147Q17.47368,21.886188,17.38268,21.923879Q17.29169,21.961570000000002,17.19509,21.980785Q17.098489999999998,22,17,22L14,22Q13.9015086,22,13.80491,21.980785Q13.708311,21.961570000000002,13.617317,21.923879Q13.526322,21.886188,13.44443,21.83147Q13.362537,21.776751,13.292893,21.707107Q13.223249,21.637463,13.16853,21.55557Q13.113812,21.473678,13.076121,21.382683Q13.03843,21.291689,13.019214999999999,21.19509Q13,21.0984914,13,21Q13,20.9015086,13.019214999999999,20.80491Q13.03843,20.708311,13.076121,20.617317Q13.113812,20.526322,13.16853,20.44443Q13.223249,20.362537,13.292893,20.292893Q13.362537,20.223249,13.44443,20.16853Q13.526322,20.113812,13.617317,20.076121Q13.708311,20.038429999999998,13.80491,20.019215Q13.9015086,20,14,20Z"
                fill-rule="evenodd" fill="#FFFFFF" fill-opacity="1" />
        </g>
    </g>
</svg>