<svg xmlns="http://www.w3.org/2000/svg" fill="none" version="1.1" width="178" height="14" viewBox="0 0 178 14">
    <g>
        <path
            d="M0,2L1,2L1,13L0,13L0,2ZM3,5L4,5L4,9L3,9L3,5ZM9,7L10,7L10,8L9,8L9,7ZM12,5L13,5L13,9L12,9L12,5ZM15,4L16,4L16,10L15,10L15,4ZM18,4L19,4L19,10L18,10L18,4ZM21,6L22,6L22,8L21,8L21,6ZM24,6L25,6L25,8L24,8L24,6ZM33,5L34,5L34,9L33,9L33,5ZM39,4L40,4L40,10L39,10L39,4ZM45,4L46,4L46,10L45,10L45,4ZM51,4L52,4L52,10L51,10L51,4ZM57,4L58,4L58,10L57,10L57,4ZM66,5L67,5L67,9L66,9L66,5ZM63,2L64,2L64,12L63,12L63,2ZM72,1L73,1L73,14L72,14L72,1ZM78,2L79,2L79,12L78,12L78,2ZM42,6L43,6L43,8L42,8L42,6ZM48,6L49,6L49,8L48,8L48,6ZM54,6L55,6L55,8L54,8L54,6ZM60,6L61,6L61,8L60,8L60,6ZM69,6L70,6L70,8L69,8L69,6ZM75,6L76,6L76,8L75,8L75,6ZM81,6L82,6L82,8L81,8L81,6ZM87,6L88,6L88,8L87,8L87,6ZM93,6L94,6L94,8L93,8L93,6ZM102,6L103,6L103,8L102,8L102,6ZM111,6L112,6L112,8L111,8L111,6ZM120,6L121,6L121,8L120,8L120,6ZM126,6L127,6L127,8L126,8L126,6ZM129,6L130,6L130,8L129,8L129,6ZM132,5L133,5L133,9L132,9L132,5ZM135,5L136,5L136,9L135,9L135,5ZM144,5L145,5L145,9L144,9L144,5ZM147,6L148,6L148,8L147,8L147,6ZM150,6L151,6L151,8L150,8L150,6ZM156,6L157,6L157,8L156,8L156,6ZM153,0L154,0L154,14L153,14L153,0ZM159,0L160,0L160,14L159,14L159,0ZM138,4L139,4L139,10L138,10L138,4ZM141,4L142,4L142,10L141,10L141,4ZM123,5L124,5L124,9L123,9L123,5ZM84,6L85,6L85,8L84,8L84,6ZM90,6L91,6L91,8L90,8L90,6ZM96,6L97,6L97,8L96,8L96,6ZM105,5L106,5L106,9L105,9L105,5ZM108,5L109,5L109,9L108,9L108,5ZM99,5L100,5L100,9L99,9L99,5ZM114,3L115,3L115,11L114,11L114,3ZM117,3L118,3L118,11L117,11L117,3ZM27,1L28,1L28,13L27,13L27,1ZM30,1L31,1L31,13L30,13L30,1ZM36,1L37,1L37,13L36,13L36,1ZM6,4L7,4L7,10L6,10L6,4ZM169,5L168,5L168,9L169,9L169,5ZM175,5L174,5L174,9L175,9L175,5ZM166,6L165,6L165,8L166,8L166,6ZM178,6L177,6L177,8L178,8L178,6ZM163,6L162,6L162,8L163,8L163,6ZM172,4L171,4L171,10L172,10L172,4Z"
            fill="#FFFFFF" fill-opacity="1" />
    </g>
</svg>