<?xml version="1.0" standalone="no"?><!DOCTYPE svg PUBLIC "-//W3C//DTD SVG 1.1//EN"
    "http://www.w3.org/Graphics/SVG/1.1/DTD/svg11.dtd">
<svg t="1765437120747" class="icon" viewBox="0 0 1152 1024" version="1.1" xmlns="http://www.w3.org/2000/svg"
    p-id="17463" width="288" height="256">
    <path
        d="M998.016 899.8784H798.2336c-23.7312-0.192-42.88-20.9792-42.88-46.5408 0-25.5744 19.1488-46.3616 42.88-46.5536H998.016c37.312-0.0512 67.5456-32.6272 67.584-72.832V165.9264c-0.0384-40.192-30.272-72.768-67.584-72.832H153.984c-37.312 0.064-67.5328 32.64-67.5712 72.832v568.0512c0.0256 40.192 30.2592 72.768 67.5584 72.832h174.9376c23.7312 0.1792 42.88 20.9664 42.88 46.5408 0 25.5616-19.1488 46.336-42.88 46.5408H153.9584C68.9664 899.776 0.0768 825.5488 0 733.952V165.9136C0.0768 74.3296 68.9664 0.1024 153.9584 0H998.016C1083.0208 0.1024 1151.9104 74.3296 1152 165.9264V733.952c-0.0896 91.584-68.992 165.8112-153.984 165.9136zM777.6 1024h-403.2L576 744.7296 777.6 1024z"
        fill="#000000" p-id="17464"></path>
</svg>