<svg xmlns="http://www.w3.org/2000/svg" fill="none" version="1.1" width="24" height="24" viewBox="0 0 24 24">
    <g>
        <g>
            <g style="opacity:0.30000001192092896;"></g>
            <g>
                <path
                    d="M1.591893,17.9481Q2.183787,18.54,3,18.54L6.80218,18.54L15.1027,21.9579Q15.5012,22.1356,15.9055,22.0565Q16.337699999999998,21.972,16.6308,21.6288Q17,21.1965,17,20.54L17,3.540002Q17,2.883475,16.6308,2.451175Q16.337699999999998,2.108043,15.9055,2.023514Q15.5012,1.94445,15.1027,2.12212L6.80218,5.54L3,5.54Q2.183757,5.54,1.591652,6.13251Q1,6.72457,1,7.54L1,16.54Q1,17.3562,1.591893,17.9481ZM7,16.54L3,16.54L3,7.54L7,7.54Q7.19782,7.54,7.38075,7.46468L15,4.3273399999999995L15,19.7527L7.38075,16.615299999999998Q7.19782,16.54,7,16.54Z"
                    fill-rule="evenodd" fill="#FFFFFF" fill-opacity="1" />
            </g>
            <g>
                <path
                    d="M20.688475,6.81474186920166Q21.95405,8.01575786920166,22.48874,9.37262186920166Q23,10.67001186920166,23,12.54000186920166Q23,14.40999186920166,22.48874,15.70738186920166Q21.95418,17.063901869201658,20.689119,18.264601869201663Q20.549704,18.39720186920166,20.371047,18.46860186920166Q20.192391,18.54000186920166,20,18.54000186920166Q19.9015086,18.54000186920166,19.80491,18.520801869201662Q19.708311,18.50160186920166,19.617317,18.46390186920166Q19.526322,18.426201869201662,19.44443,18.37150186920166Q19.362537,18.31670186920166,19.292893,18.24710186920166Q19.223249,18.17750186920166,19.16853,18.09560186920166Q19.113812,18.01370186920166,19.076121,17.92270186920166Q19.038429999999998,17.83170186920166,19.019215,17.73510186920166Q19,17.63850186920166,19,17.54000186920166Q19,17.334271869201658,19.081209,17.14526186920166Q19.162419,16.956241869201662,19.311647,16.81462186920166Q20.255791,15.91867186920166,20.628007,14.97412186920166Q21,14.03014186920166,21,12.54000186920166Q21,11.04986186920166,20.628007,10.10588186920166Q20.255792,9.16133186920166,19.311648,8.26537786920166Q19.162419,8.12376586920166,19.081209,7.9347468692016605Q19,7.7457278692016605,19,7.54000186920166Q19,7.44151046920166,19.019215,7.34491186920166Q19.038429999999998,7.24831286920166,19.076121,7.15731886920166Q19.113812,7.066323869201661,19.16853,6.98443186920166Q19.223249,6.90253886920166,19.292893,6.8328948692016604Q19.362537,6.76325086920166,19.44443,6.70853186920166Q19.526322,6.65381386920166,19.617317,6.61612286920166Q19.708311,6.57843186920166,19.80491,6.55921686920166Q19.9015086,6.54000186920166,20,6.54000186920166Q20.192121,6.54000186920166,20.370564,6.61119486920166Q20.549008,6.68238786920166,20.688365,6.81463786920166L20.688475,6.81474186920166Z"
                    fill-rule="evenodd" fill="#FFFFFF" fill-opacity="1" />
            </g>
        </g>
    </g>
</svg>