<svg xmlns="http://www.w3.org/2000/svg" fill="none" version="1.1" width="16" height="16" viewBox="0 0 16 16">
    <g>
        <g style="opacity:0.2340262234210968;"></g>
        <g>
            <g>
                <path
                    d="M13.2142504296875,3.28564453125L13.2142504296875,6.36727453125L14.2142504296875,6.36727453125L14.2142504296875,3.28564453125Q14.2142504296875,2.66432453125,13.7749104296875,2.22498433125Q13.3355704296875,1.78564453125,12.7142504296875,1.78564453125L9.6326904296875,1.78564453125L9.6326904296875,2.78564453125L12.7142504296875,2.78564453125Q12.9213604296875,2.78564453125,13.0678104296875,2.93209153125Q13.2142504296875,3.07853753125,13.2142504296875,3.28564453125Z"
                    fill-rule="evenodd" fill="#FFFFFF" fill-opacity="1" />
            </g>
            <g>
                <path
                    d="M14.2142504296875,12.7144425L14.2142504296875,9.6328125L13.2142504296875,9.6328125L13.2142504296875,12.7144425Q13.2142504296875,12.9215525,13.0678104296875,13.0680025Q12.9213604296875,13.2144425,12.7142504296875,13.2144425L9.6326904296875,13.2144425L9.6326904296875,14.2144425L12.7142504296875,14.2144425Q13.3355704296875,14.2144425,13.7749104296875,13.7751025Q14.2142504296875,13.3357625,14.2142504296875,12.7144425Z"
                    fill-rule="evenodd" fill="#FFFFFF" fill-opacity="1" />
            </g>
            <g>
                <path
                    d="M1.7858066015625,3.2858945312500003L1.7859296015625001,6.36729453125L2.7859296015625,6.36725453125L2.7858066015625003,3.28585453125Q2.7857986015625,3.07874553125,2.9322356015624997,2.93229353125Q3.0786726015625,2.78584153125,3.2857766015625,2.78582953125L6.3675166015625,2.78564453125L6.3674566015625,1.78564453125L3.2857166015625,1.78582953125Q2.6644056015625,1.78586653125,2.2250934015625,2.22522233125Q1.7857816015624999,2.66457753125,1.7858066015625,3.2858945312500003Z"
                    fill-rule="evenodd" fill="#FFFFFF" fill-opacity="1" />
            </g>
            <g>
                <path
                    d="M2.7860107421875,12.7144425L2.7860107421875,9.6328125L1.7860107421875,9.6328125L1.7860107421875,12.7144425Q1.7860107421875,13.3357625,2.2253505421875,13.7751025Q2.6646907421875,14.2144425,3.2860107421875,14.2144425L6.3675707421875,14.2144425L6.3675707421875,13.2144425L3.2860107421875,13.2144425Q3.0789037421875,13.2144425,2.9324577421875,13.0680025Q2.7860107421875,12.9215525,2.7860107421875,12.7144425Z"
                    fill-rule="evenodd" fill="#FFFFFF" fill-opacity="1" />
            </g>
        </g>
    </g>
</svg>