<svg xmlns="http://www.w3.org/2000/svg" fill="none" version="1.1" width="36" height="36" viewBox="0 0 36 36">
    <g>
        <g>
            <path
                d="M17,5.5Q17,5.4015086,17.019215,5.30491Q17.038429999999998,5.208311,17.076121,5.117317Q17.113812,5.026322,17.16853,4.94443Q17.223249,4.862537,17.292893,4.792893Q17.362537,4.723249,17.44443,4.66853Q17.526322,4.613812,17.617317,4.576121Q17.708311,4.53843,17.80491,4.519215Q17.9015086,4.5,18,4.5Q18.0984914,4.5,18.19509,4.519215Q18.291689,4.53843,18.382683,4.576121Q18.473678,4.613812,18.55557,4.66853Q18.637463,4.723249,18.707107,4.792893Q18.776751,4.862537,18.83147,4.94443Q18.886188,5.026322,18.923879,5.117317Q18.961570000000002,5.208311,18.980785,5.30491Q19,5.4015086,19,5.5L19,24Q19,24.0985,18.980785,24.1951Q18.961570000000002,24.2917,18.923879,24.3827Q18.886188,24.4737,18.83147,24.5556Q18.776751,24.6375,18.707107,24.7071Q18.637463,24.7767,18.55557,24.8315Q18.473678,24.8862,18.382683,24.9239Q18.291689,24.9616,18.19509,24.9808Q18.0984914,25,18,25Q17.9015086,25,17.80491,24.9808Q17.708311,24.9616,17.617317,24.9239Q17.526322,24.8862,17.44443,24.8315Q17.362537,24.7767,17.292893,24.7071Q17.223249,24.6375,17.16853,24.5556Q17.113812,24.4737,17.076121,24.3827Q17.038429999999998,24.2917,17.019215,24.1951Q17,24.0985,17,24L17,5.5Z"
                fill-rule="evenodd" fill="#333333" fill-opacity="1" />
        </g>
        <g>
            <path
                d="M8.6889,13.775143L18.6888,23.275Q18.8378,23.416600000000003,18.9189,23.605510000000002Q19,23.794420000000002,19,24Q19,24.098489999999998,18.980800000000002,24.19509Q18.9616,24.29169,18.9239,24.38268Q18.886200000000002,24.47368,18.8315,24.5556Q18.776699999999998,24.6375,18.7071,24.7071Q18.6375,24.776699999999998,18.5556,24.8315Q18.4737,24.886200000000002,18.3827,24.9239Q18.2917,24.9616,18.1951,24.980800000000002Q18.0985,25,18,25Q17.807740000000003,25,17.62919,24.9287Q17.45064,24.8574,17.31125,24.725L17.31092,24.7247L7.311401,15.225142L7.311251,15.224999Q7.162203,15.083404,7.081101,14.894494Q7,14.705583,7,14.5Q7,14.4015086,7.019215,14.30491Q7.03843,14.208311,7.076121,14.117317Q7.113812,14.026322,7.16853,13.94443Q7.223249,13.862537,7.292893,13.792893Q7.362537,13.723249,7.44443,13.66853Q7.526322,13.613812,7.617317,13.576121Q7.708311,13.53843,7.80491,13.519214999999999Q7.9015086,13.5,8,13.5Q8.192258,13.5,8.37081,13.571291Q8.549362,13.642583,8.688749,13.775001L8.6889,13.775143Z"
                fill-rule="evenodd" fill="#333333" fill-opacity="1" />
        </g>
        <g transform="matrix(-1,0,0,1,56,0)">
            <path
                d="M28.6889,13.775143L38.6888,23.275Q38.8378,23.416600000000003,38.9189,23.605510000000002Q39,23.794420000000002,39,24Q39,24.098489999999998,38.9808,24.19509Q38.961600000000004,24.29169,38.9239,24.38268Q38.8862,24.47368,38.8315,24.5556Q38.7767,24.6375,38.7071,24.7071Q38.6375,24.776699999999998,38.5556,24.8315Q38.4737,24.886200000000002,38.3827,24.9239Q38.2917,24.9616,38.1951,24.980800000000002Q38.0985,25,38,25Q37.80774,25,37.62919,24.9287Q37.45064,24.8574,37.31125,24.725L37.310919999999996,24.7247L27.311401,15.225142L27.311251,15.224999Q27.162203,15.083404,27.081101,14.894494Q27,14.705583,27,14.5Q27,14.4015086,27.019215,14.30491Q27.038429999999998,14.208311,27.076121,14.117317Q27.113812,14.026322,27.16853,13.94443Q27.223249,13.862537,27.292893,13.792893Q27.362537,13.723249,27.44443,13.66853Q27.526322,13.613812,27.617317,13.576121Q27.708311,13.53843,27.80491,13.519214999999999Q27.9015086,13.5,28,13.5Q28.192258,13.5,28.37081,13.571291Q28.549362,13.642583,28.688749,13.775001L28.6889,13.775143Z"
                fill-rule="evenodd" fill="#333333" fill-opacity="1" />
        </g>
        <g>
            <path
                d="M7,29L29,29Q29.0985,29,29.1951,29.019215Q29.2917,29.038429999999998,29.3827,29.076121Q29.4737,29.113812,29.5556,29.16853Q29.6375,29.223249,29.7071,29.292893Q29.7768,29.362537,29.8315,29.44443Q29.8862,29.526322,29.9239,29.617317Q29.9616,29.708311,29.9808,29.80491Q30,29.9015086,30,30Q30,30.0984914,29.9808,30.19509Q29.9616,30.291689,29.9239,30.382683Q29.8862,30.473678,29.8315,30.55557Q29.7768,30.637463,29.7071,30.707107Q29.6375,30.776751,29.5556,30.83147Q29.4737,30.886188,29.3827,30.923879Q29.2917,30.961570000000002,29.1951,30.980785Q29.0985,31,29,31L7,31Q6.9015086,31,6.80491,30.980785Q6.708311,30.961570000000002,6.617317,30.923879Q6.526322,30.886188,6.44443,30.83147Q6.362537,30.776751,6.292893,30.707107Q6.223249,30.637463,6.16853,30.55557Q6.113812,30.473678,6.076121,30.382683Q6.03843,30.291689,6.019215,30.19509Q6,30.0984914,6,30Q6,29.9015086,6.019215,29.80491Q6.03843,29.708311,6.076121,29.617317Q6.113812,29.526322,6.16853,29.44443Q6.223249,29.362537,6.292893,29.292893Q6.362537,29.223249,6.44443,29.16853Q6.526322,29.113812,6.617317,29.076121Q6.708311,29.038429999999998,6.80491,29.019215Q6.9015086,29,7,29Z"
                fill-rule="evenodd" fill="#333333" fill-opacity="1" />
        </g>
    </g>
</svg>