<svg xmlns="http://www.w3.org/2000/svg" fill="none" version="1.1" width="32" height="32" viewBox="0 0 32 32">
    <g>
        <g></g>
        <g>
            <path
                d="M28,14.39675L28,5.846154Q28,5.747662,27.9808,5.651064Q27.9616,5.554465,27.9239,5.46347Q27.8862,5.372476,27.8315,5.290584Q27.7768,5.208691,27.7071,5.139047Q27.6375,5.0694031,27.5556,5.0146842Q27.4737,4.9599653,27.3827,4.9222743Q27.2917,4.884583,27.1951,4.865369Q27.0985,4.846154,27,4.846154Q26.9015,4.846154,26.8049,4.865369Q26.7083,4.884583,26.6173,4.9222743Q26.5263,4.9599653,26.4444,5.0146842Q26.3625,5.0694031,26.2929,5.139047Q26.2232,5.208691,26.1685,5.290584Q26.1138,5.372476,26.0761,5.46347Q26.0384,5.554465,26.0192,5.651064Q26,5.747662,26,5.846154L26,9.17163Q25.155,7.97153,23.9766,6.94966Q20.5749,4,16.0583,4Q13.60666,4,11.366060000000001,4.9426661Q9.20212,5.85308,7.5336099999999995,7.51279Q5.864555,9.17304,4.9487293,11.32694Q4.000001,13.55822,4.000001,16Q4,18.4416,4.9487313,20.672800000000002Q5.864561,22.8267,7.5336,24.487Q9.20213,26.1468,11.36604,27.0572Q13.60667,28,16.0583,28Q19.100099999999998,28,21.763,26.5746Q24.3406,25.1947,26.0014,22.7906L26.002,22.7896Q26.0886,22.6643,26.1339,22.519Q26.1792,22.3736,26.1792,22.2213Q26.1792,22.1228,26.16,22.0262Q26.1408,21.9296,26.1031,21.8387Q26.0654,21.7477,26.0107,21.6658Q25.9559,21.5839,25.8863,21.5142Q25.8167,21.4446,25.7348,21.3899Q25.6529,21.3351,25.5619,21.2975Q25.4709,21.2598,25.3743,21.2406Q25.2777,21.2213,25.1792,21.2213Q25.0578,21.2213,24.94,21.2504Q24.8221,21.2794,24.7146,21.3358Q24.6071,21.3922,24.5162,21.4727Q24.4254,21.5532,24.3564,21.653Q22.9705,23.6596,20.8191,24.8113Q18.5985,26,16.0583,26Q14.01029,26,12.141680000000001,25.2138Q10.33661,24.4543,8.94409,23.0691Q7.55215,21.6844,6.7892600000000005,19.8902Q6,18.034,6,16Q6,13.96576,6.7892600000000005,12.10953Q7.55214,10.31533,8.94408,8.93074Q10.33657,7.54559,12.14166,6.78616Q14.01025,6,16.0583,6Q19.8286,6,22.6663,8.46069Q25.4755,10.896650000000001,26.0106,14.54197Q26.0236,14.63033,26.052,14.71499Q26.0804,14.79965,26.1234,14.87793Q26.1663,14.95622,26.2225,15.0256Q26.2787,15.0951,26.3463,15.1535Q26.4138,15.2118,26.4907,15.2573Q26.5675,15.3028,26.6512,15.334Q26.7349,15.3651,26.8228,15.3809Q26.9107,15.3967,27,15.3968Q27.0985,15.3968,27.1951,15.3775Q27.2917,15.3583,27.3827,15.3206Q27.4737,15.2829,27.5556,15.2282Q27.6375,15.1735,27.7071,15.1039Q27.7768,15.0342,27.8315,14.95232Q27.8862,14.87043,27.9239,14.77943Q27.9616,14.68844,27.9808,14.59184Q28,14.49524,28,14.39675Z"
                fill-rule="evenodd" fill="#FFFFFF" fill-opacity="1" />
        </g>
    </g>
</svg>