<svg xmlns="http://www.w3.org/2000/svg" fill="none" version="1.1" width="212" height="108" viewBox="0 0 212 108">
    <defs>
        <linearGradient x1="0" y1="0" x2="1" y2="1" id="master_svg0_314_1847">
            <stop offset="0%" stop-color="#6896F3" stop-opacity="1" />
            <stop offset="100%" stop-color="#8468F3" stop-opacity="1" />
        </linearGradient>
        <clipPath id="master_svg1_489_1010">
            <rect x="128" y="24" width="80" height="80" rx="0" />
        </clipPath>
    </defs>
    <g>
        <g>
            <rect x="0" y="0" width="212" height="108" rx="8" fill="url(#master_svg0_314_1847)" fill-opacity="1" />
        </g>
        <g style="opacity:0.5;" clip-path="url(#master_svg1_489_1010)">
            <g>
                <path
                    d="M195.6279453125,89.10385531616211L187.8679453125,89.10385531616211C195.2119453125,83.2038553161621,199.9199453125,74.1558553161621,199.9199453125,63.99985531616211C199.9199453125,46.22385531616211,185.5079453125,31.81185531616211,167.7319453125,31.81185531616211C149.9559453125,31.81185531616211,135.5439453125,46.22385531616211,135.5439453125,63.99985531616211C135.5439453125,81.77585531616211,149.9559453125,96.18785531616211,167.7319453125,96.18785531616211L195.6279453125,96.18785531616211C197.5839453125,96.18785531616211,199.1679453125,94.60385531616211,199.1679453125,92.64785531616211C199.1679453125,90.6918553161621,197.5839453125,89.10385531616211,195.6279453125,89.10385531616211ZM167.7319453125,57.91605531616211Q167.8983453125,57.91605531616211,168.0645453125,57.90785531616211Q168.2308453125,57.899755316162114,168.3964453125,57.88335531616211Q168.5621453125,57.86705531616211,168.7267453125,57.84265531616211Q168.8913453125,57.81825531616211,169.05464531249999,57.78575531616211Q169.2178453125,57.75325531616211,169.3793453125,57.712855316162106Q169.5407453125,57.672455316162115,169.7000453125,57.624055316162114Q169.8592453125,57.57575531616211,170.0160453125,57.519755316162104Q170.1727453125,57.46365531616211,170.3264453125,57.39995531616211Q170.48024531250002,57.33625531616211,170.63074531249998,57.265055316162105Q170.7811453125,57.19395531616211,170.92794531250001,57.11545531616211Q171.0747453125,57.03705531616211,171.2175453125,56.95145531616211Q171.3602453125,56.86585531616211,171.4986453125,56.773455316162114Q171.6370453125,56.68095531616211,171.7707453125,56.58175531616211Q171.9044453125,56.48265531616211,172.0330453125,56.377055316162114Q172.1617453125,56.271455316162104,172.28504531250002,56.15965531616211Q172.4084453125,56.04795531616211,172.5260453125,55.93025531616211Q172.64374531250002,55.812555316162104,172.7555453125,55.68925531616211Q172.8673453125,55.565855316162114,172.9729453125,55.43725531616211Q173.0785453125,55.30855531616211,173.1776453125,55.17485531616211Q173.2767453125,55.041155316162104,173.3692453125,54.90285531616211Q173.4617453125,54.76445531616211,173.5473453125,54.621655316162105Q173.6328453125,54.47885531616211,173.7113453125,54.33215531616211Q173.7897453125,54.18535531616211,173.8609453125,54.03485531616211Q173.93214531249998,53.884355316162114,173.9958453125,53.730655316162114Q174.0595453125,53.57685531616211,174.1155453125,53.42015531616211Q174.1716453125,53.26345531616211,174.2199453125,53.10415531616211Q174.2682453125,52.944855316162105,174.3087453125,52.783455316162105Q174.3491453125,52.62195531616211,174.38164531249998,52.45875531616211Q174.4141453125,52.29555531616211,174.4385453125,52.13085531616211Q174.46294531249998,51.966255316162105,174.47924531249998,51.80055531616211Q174.49554531249998,51.634955316162106,174.5037453125,51.46875531616211Q174.51194531250002,51.30245531616211,174.51194531250002,51.136055316162114Q174.51194531250002,50.96965531616211,174.5037453125,50.80335531616211Q174.49554531249998,50.63715531616211,174.47924531249998,50.47145531616211Q174.46294531249998,50.30585531616211,174.4385453125,50.14125531616211Q174.4141453125,49.976555316162106,174.38164531249998,49.81335531616211Q174.3491453125,49.65005531616211,174.3087453125,49.48865531616211Q174.2682453125,49.327155316162106,174.2199453125,49.16795531616211Q174.1716453125,49.008655316162105,174.1155453125,48.851955316162105Q174.0595453125,48.69525531616211,173.9958453125,48.541455316162114Q173.93214531249998,48.38765531616211,173.8609453125,48.237255316162106Q173.7897453125,48.08675531616211,173.7113453125,47.93995531616211Q173.6328453125,47.79315531616211,173.5473453125,47.65045531616211Q173.4617453125,47.50765531616211,173.3692453125,47.36925531616211Q173.2767453125,47.230855316162106,173.1776453125,47.09715531616211Q173.0785453125,46.96355531616211,172.9729453125,46.834855316162106Q172.8673453125,46.70615531616211,172.7555453125,46.58285531616211Q172.64374531250002,46.45955531616211,172.5260453125,46.34185531616211Q172.4084453125,46.22415531616211,172.28504531250002,46.11235531616211Q172.1617453125,46.00065531616211,172.0330453125,45.89505531616211Q171.9044453125,45.78945531616211,171.7707453125,45.69025531616211Q171.6370453125,45.59115531616211,171.4986453125,45.49865531616211Q171.3602453125,45.40625531616211,171.2175453125,45.32065531616211Q171.0747453125,45.23505531616211,170.92794531250001,45.15665531616211Q170.7811453125,45.07815531616211,170.63074531249998,45.006955316162106Q170.48024531250002,44.93585531616211,170.3264453125,44.87215531616211Q170.1727453125,44.80845531616211,170.0160453125,44.75235531616211Q169.8592453125,44.69625531616211,169.7000453125,44.64795531616211Q169.5407453125,44.599655316162114,169.3793453125,44.55925531616211Q169.2178453125,44.51875531616211,169.05464531249999,44.48635531616211Q168.8913453125,44.453855316162105,168.7267453125,44.429455316162105Q168.5621453125,44.405055316162105,168.3964453125,44.38865531616211Q168.2308453125,44.37235531616211,168.0645453125,44.36425531616211Q167.8983453125,44.35605531616211,167.7319453125,44.35605531616211Q167.5654453125,44.35605531616211,167.3992453125,44.36425531616211Q167.2329453125,44.37235531616211,167.0673453125,44.38865531616211Q166.9017453125,44.405055316162105,166.73704531250002,44.429455316162105Q166.5724453125,44.453855316162105,166.40914531250002,44.48635531616211Q166.2459453125,44.51875531616211,166.0845453125,44.55925531616211Q165.9230453125,44.599655316162114,165.7637453125,44.64795531616211Q165.6045453125,44.69625531616211,165.4477453125,44.75235531616211Q165.2910453125,44.80845531616211,165.1373453125,44.87215531616211Q164.98354531249998,44.93585531616211,164.8330453125,45.006955316162106Q164.6826453125,45.07815531616211,164.5358453125,45.15665531616211Q164.3890453125,45.23505531616211,164.2462453125,45.32065531616211Q164.1035453125,45.40625531616211,163.9651453125,45.49865531616211Q163.8267453125,45.59115531616211,163.6930453125,45.69025531616211Q163.5593453125,45.78945531616211,163.4307453125,45.89505531616211Q163.3020453125,46.00065531616211,163.17874531249998,46.11235531616211Q163.0554453125,46.22415531616211,162.9377453125,46.34185531616211Q162.82004531249999,46.45955531616211,162.7082453125,46.58285531616211Q162.5964453125,46.70615531616211,162.4908453125,46.834855316162106Q162.3853453125,46.96355531616211,162.2861453125,47.09715531616211Q162.1870453125,47.230855316162106,162.0945453125,47.36925531616211Q162.0020453125,47.50765531616211,161.9165453125,47.65045531616211Q161.8309453125,47.79315531616211,161.75244531250002,47.93995531616211Q161.6740453125,48.08675531616211,161.6028453125,48.237255316162106Q161.5316453125,48.38765531616211,161.4680453125,48.541455316162114Q161.4043453125,48.69525531616211,161.3482453125,48.851955316162105Q161.2921453125,49.008655316162105,161.2438453125,49.16795531616211Q161.1955453125,49.327155316162106,161.1550453125,49.48865531616211Q161.1146453125,49.65005531616211,161.0821453125,49.81335531616211Q161.0497453125,49.976555316162106,161.0252453125,50.14125531616211Q161.0008453125,50.30585531616211,160.9845453125,50.47145531616211Q160.9682453125,50.63715531616211,160.9600453125,50.80335531616211Q160.95194531250002,50.96965531616211,160.95194531250002,51.136055316162114Q160.95194531250002,51.30245531616211,160.9600453125,51.46875531616211Q160.9682453125,51.634955316162106,160.9845453125,51.80055531616211Q161.0008453125,51.966255316162105,161.0252453125,52.13085531616211Q161.0497453125,52.29555531616211,161.0821453125,52.45875531616211Q161.1146453125,52.62195531616211,161.1550453125,52.783455316162105Q161.1955453125,52.944855316162105,161.2438453125,53.10415531616211Q161.2921453125,53.26345531616211,161.3482453125,53.42015531616211Q161.4043453125,53.57685531616211,161.4680453125,53.730655316162114Q161.5316453125,53.884355316162114,161.6028453125,54.03485531616211Q161.6740453125,54.18535531616211,161.75244531250002,54.33215531616211Q161.8309453125,54.47885531616211,161.9165453125,54.621655316162105Q162.0020453125,54.76445531616211,162.0945453125,54.90285531616211Q162.1870453125,55.041155316162104,162.2861453125,55.17485531616211Q162.3853453125,55.30855531616211,162.4908453125,55.43725531616211Q162.5964453125,55.565855316162114,162.7082453125,55.68925531616211Q162.82004531249999,55.812555316162104,162.9377453125,55.93025531616211Q163.0554453125,56.04795531616211,163.17874531249998,56.15965531616211Q163.3020453125,56.271455316162104,163.4307453125,56.377055316162114Q163.5593453125,56.48265531616211,163.6930453125,56.58175531616211Q163.8267453125,56.68095531616211,163.9651453125,56.773455316162114Q164.1035453125,56.86585531616211,164.2462453125,56.95145531616211Q164.3890453125,57.03705531616211,164.5358453125,57.11545531616211Q164.6826453125,57.19395531616211,164.8330453125,57.265055316162105Q164.98354531249998,57.33625531616211,165.1373453125,57.39995531616211Q165.2910453125,57.46365531616211,165.4477453125,57.519755316162104Q165.6045453125,57.57575531616211,165.7637453125,57.624055316162114Q165.9230453125,57.672455316162115,166.0845453125,57.712855316162106Q166.2459453125,57.75325531616211,166.40914531250002,57.78575531616211Q166.5724453125,57.81825531616211,166.73704531250002,57.84265531616211Q166.9017453125,57.86705531616211,167.0673453125,57.88335531616211Q167.2329453125,57.899755316162114,167.3992453125,57.90785531616211Q167.5654453125,57.91605531616211,167.7319453125,57.91605531616211ZM161.3137453125,64.33175531616212Q161.3137453125,64.4982553161621,161.3056453125,64.66455531616211Q161.2974453125,64.83085531616211,161.2811453125,64.9966553161621Q161.2648453125,65.1623553161621,161.2403453125,65.3270553161621Q161.2159453125,65.49175531616211,161.1834453125,65.6550553161621Q161.1509453125,65.8184553161621,161.1105453125,65.97995531616212Q161.07004531249999,66.14145531616211,161.0217453125,66.30085531616211Q160.9734453125,66.46015531616212,160.9173453125,66.61695531616212Q160.8612453125,66.77375531616211,160.7975453125,66.92755531616211Q160.7338453125,67.0814553161621,160.6626453125,67.2319553161621Q160.5914453125,67.38245531616211,160.5129453125,67.52935531616211Q160.4345453125,67.67625531616211,160.3489453125,67.8190553161621Q160.2633453125,67.96185531616212,160.1708453125,68.10035531616211Q160.0783453125,68.23875531616211,159.9791453125,68.3725553161621Q159.8800453125,68.50625531616211,159.7743453125,68.63505531616211Q159.6687453125,68.7637553161621,159.5569453125,68.88715531616211Q159.4451453125,69.01055531616211,159.3274453125,69.12825531616211Q159.2097453125,69.24605531616211,159.0863453125,69.3578553161621Q158.9629453125,69.46965531616212,158.8343453125,69.5752553161621Q158.7056453125,69.68095531616211,158.5718453125,69.78015531616211Q158.4381453125,69.8793553161621,158.2997453125,69.9718553161621Q158.1613453125,70.0643553161621,158.0185453125,70.1499553161621Q157.8757453125,70.2355553161621,157.7288453125,70.31405531616211Q157.5820453125,70.39255531616212,157.4315453125,70.4637553161621Q157.2810453125,70.53495531616211,157.1272453125,70.59865531616211Q156.9734453125,70.66245531616211,156.8166453125,70.71855531616211Q156.65994531249999,70.77465531616211,156.5006453125,70.82295531616211Q156.3413453125,70.8712553161621,156.1798453125,70.9117553161621Q156.0183453125,70.95225531616211,155.8550453125,70.9846553161621Q155.6917453125,71.0171553161621,155.5270453125,71.0416553161621Q155.3623453125,71.0660553161621,155.1966453125,71.08235531616211Q155.0310453125,71.09865531616211,154.8647453125,71.10685531616211Q154.69844531249998,71.11505531616211,154.5319453125,71.11505531616211Q154.36544531250001,71.11505531616211,154.1991453125,71.10685531616211Q154.0329453125,71.09865531616211,153.8672453125,71.08235531616211Q153.7015453125,71.0660553161621,153.5368453125,71.0416553161621Q153.3721453125,71.0171553161621,153.2088453125,70.9846553161621Q153.0456453125,70.95225531616211,152.8841453125,70.9117553161621Q152.7226453125,70.8712553161621,152.5632453125,70.82295531616211Q152.4039453125,70.77465531616211,152.2472453125,70.71855531616211Q152.0904453125,70.66245531616211,151.9366453125,70.59865531616211Q151.7828453125,70.53495531616211,151.6323453125,70.4637553161621Q151.4818453125,70.39255531616212,151.3350453125,70.31405531616211Q151.1881453125,70.2355553161621,151.0454453125,70.1499553161621Q150.9026453125,70.0643553161621,150.7641453125,69.9718553161621Q150.6257453125,69.8793553161621,150.4920453125,69.78015531616211Q150.3583453125,69.68095531616211,150.2296453125,69.5752553161621Q150.1009453125,69.46965531616212,149.9775453125,69.3578553161621Q149.8542453125,69.24605531616211,149.7364453125,69.12825531616211Q149.6187453125,69.01055531616211,149.5069453125,68.88715531616211Q149.3951453125,68.7637553161621,149.2895453125,68.63505531616211Q149.1839453125,68.50625531616211,149.0847453125,68.3725553161621Q148.9855453125,68.23875531616211,148.8930453125,68.10035531616211Q148.8005453125,67.96185531616212,148.7149453125,67.8190553161621Q148.6293453125,67.67625531616211,148.5509453125,67.52935531616211Q148.47244531249999,67.38245531616211,148.4012453125,67.2319553161621Q148.3300453125,67.0814553161621,148.2663453125,66.92755531616211Q148.2026453125,66.77375531616211,148.1465453125,66.61695531616212Q148.0904453125,66.46015531616212,148.0421453125,66.30085531616211Q147.9938453125,66.14145531616211,147.9533453125,65.97995531616212Q147.9129453125,65.8184553161621,147.8804453125,65.6550553161621Q147.8479453125,65.49175531616211,147.8235453125,65.3270553161621Q147.7991453125,65.1623553161621,147.7827453125,64.9966553161621Q147.7664453125,64.83085531616211,147.7582453125,64.66455531616211Q147.7501453125,64.4982553161621,147.7501453125,64.33175531616212Q147.7501453125,64.1652553161621,147.7582453125,63.99885531616211Q147.7664453125,63.83255531616211,147.7827453125,63.66685531616211Q147.7991453125,63.50115531616211,147.8235453125,63.33645531616211Q147.8479453125,63.17165531616211,147.8804453125,63.00835531616211Q147.9129453125,62.84505531616211,147.9533453125,62.68355531616211Q147.9938453125,62.521955316162106,148.0421453125,62.362655316162105Q148.0904453125,62.203255316162114,148.1465453125,62.04655531616211Q148.2026453125,61.88975531616211,148.2663453125,61.73585531616211Q148.3300453125,61.58205531616211,148.4012453125,61.43145531616211Q148.47244531249999,61.28095531616211,148.5509453125,61.13415531616211Q148.6293453125,60.987255316162106,148.7149453125,60.84445531616211Q148.8005453125,60.701555316162114,148.8930453125,60.56315531616211Q148.9855453125,60.42465531616211,149.0847453125,60.29095531616211Q149.1839453125,60.15715531616211,149.2895453125,60.02845531616211Q149.3951453125,59.899755316162114,149.5069453125,59.77635531616211Q149.6187453125,59.65295531616211,149.7364453125,59.53525531616211Q149.8542453125,59.417455316162105,149.9775453125,59.30565531616211Q150.1009453125,59.193855316162114,150.2296453125,59.08815531616211Q150.3583453125,58.982555316162106,150.4920453125,58.88335531616211Q150.6257453125,58.78415531616211,150.7641453125,58.69165531616211Q150.9025453125,58.59915531616211,151.0453453125,58.51345531616211Q151.1881453125,58.42785531616211,151.3350453125,58.34935531616211Q151.4818453125,58.27085531616211,151.6323453125,58.19965531616211Q151.7828453125,58.12845531616211,151.9366453125,58.064755316162106Q152.0904453125,58.00105531616211,152.2472453125,57.94495531616211Q152.4039453125,57.88885531616211,152.5632453125,57.84055531616211Q152.7226453125,57.79215531616211,152.8841453125,57.75175531616211Q153.0456453125,57.71125531616211,153.2088453125,57.67875531616211Q153.3721453125,57.64625531616211,153.5368453125,57.62185531616211Q153.7015453125,57.59745531616211,153.8672453125,57.58105531616211Q154.0329453125,57.564755316162106,154.1991453125,57.55655531616211Q154.36544531250001,57.548455316162105,154.5319453125,57.548455316162105Q154.69844531249998,57.548455316162105,154.8647453125,57.55655531616211Q155.0310453125,57.564755316162106,155.1966453125,57.58105531616211Q155.3623453125,57.59745531616211,155.5270453125,57.62185531616211Q155.6917453125,57.64625531616211,155.8550453125,57.67875531616211Q156.0183453125,57.71125531616211,156.1798453125,57.75175531616211Q156.3413453125,57.79215531616211,156.5006453125,57.84055531616211Q156.65994531249999,57.88885531616211,156.8166453125,57.94495531616211Q156.9734453125,58.00105531616211,157.1272453125,58.064755316162106Q157.2810453125,58.12845531616211,157.4315453125,58.19965531616211Q157.5820453125,58.27085531616211,157.7288453125,58.34935531616211Q157.8757453125,58.42785531616211,158.0185453125,58.51345531616211Q158.1613453125,58.59915531616211,158.2997453125,58.69165531616211Q158.4381453125,58.78415531616211,158.5718453125,58.88335531616211Q158.7056453125,58.982555316162106,158.8343453125,59.08815531616211Q158.9629453125,59.193855316162114,159.0863453125,59.30565531616211Q159.2097453125,59.417455316162105,159.3274453125,59.53525531616211Q159.4451453125,59.65295531616211,159.5569453125,59.77635531616211Q159.6687453125,59.899755316162114,159.7743453125,60.02845531616211Q159.8799453125,60.15715531616211,159.9791453125,60.29095531616211Q160.0783453125,60.42465531616211,160.1708453125,60.56315531616211Q160.2633453125,60.701555316162114,160.3489453125,60.84445531616211Q160.4345453125,60.987255316162106,160.5129453125,61.13415531616211Q160.5914453125,61.28095531616211,160.6626453125,61.43145531616211Q160.7338453125,61.58205531616211,160.7975453125,61.73585531616211Q160.8612453125,61.88975531616211,160.9173453125,62.04655531616211Q160.9734453125,62.203255316162114,161.0217453125,62.362655316162105Q161.07004531249999,62.521955316162106,161.1105453125,62.68355531616211Q161.1509453125,62.84505531616211,161.1834453125,63.00835531616211Q161.2159453125,63.17165531616211,161.2403453125,63.33645531616211Q161.2648453125,63.50115531616211,161.2811453125,63.66685531616211Q161.2974453125,63.83255531616211,161.3056453125,63.99885531616211Q161.3137453125,64.1652553161621,161.3137453125,64.33175531616212ZM180.9280453125,71.1118553161621Q181.0945453125,71.1118553161621,181.2607453125,71.1036553161621Q181.4269453125,71.09555531616212,181.5926453125,71.07915531616212Q181.7582453125,71.06285531616211,181.9229453125,71.0384553161621Q182.0875453125,71.01405531616211,182.2507453125,70.98155531616212Q182.4140453125,70.94905531616212,182.5754453125,70.90865531616211Q182.73694531249998,70.8682553161621,182.8961453125,70.81985531616212Q183.0554453125,70.77155531616211,183.2121453125,70.71555531616211Q183.3688453125,70.65945531616211,183.5226453125,70.59575531616211Q183.6764453125,70.53205531616211,183.82684531249998,70.46085531616211Q183.9773453125,70.38975531616211,184.1241453125,70.31125531616212Q184.2709453125,70.2328553161621,184.4136453125,70.1472553161621Q184.5564453125,70.0616553161621,184.6948453125,69.9692553161621Q184.8332453125,69.8767553161621,184.9669453125,69.77755531616211Q185.1005453125,69.67845531616211,185.22924531249998,69.5728553161621Q185.3579453125,69.46725531616211,185.4812453125,69.35545531616211Q185.6045453125,69.24375531616211,185.7222453125,69.12605531616211Q185.8399453125,69.00835531616211,185.9517453125,68.88505531616211Q186.0634453125,68.76165531616212,186.1690453125,68.63305531616211Q186.2746453125,68.5043553161621,186.3738453125,68.3706553161621Q186.4729453125,68.23695531616211,186.5654453125,68.09865531616211Q186.6579453125,67.96025531616212,186.7434453125,67.81745531616211Q186.8290453125,67.6746553161621,186.9074453125,67.5279553161621Q186.9859453125,67.38115531616211,187.05714531249998,67.23065531616211Q187.12824531249998,67.08015531616212,187.1919453125,66.9264553161621Q187.2556453125,66.77265531616212,187.3117453125,66.61595531616211Q187.3678453125,66.45925531616211,187.4161453125,66.29995531616211Q187.4644453125,66.14065531616211,187.5048453125,65.97925531616211Q187.5453453125,65.8177553161621,187.57774531249999,65.65455531616212Q187.6102453125,65.4913553161621,187.6346453125,65.32665531616212Q187.65914531250002,65.16205531616211,187.67544531250002,64.99635531616211Q187.6917453125,64.83075531616211,187.6999453125,64.66455531616211Q187.7080453125,64.4982553161621,187.7080453125,64.33185531616212Q187.7080453125,64.1653553161621,187.6999453125,63.99915531616211Q187.6917453125,63.832955316162106,187.67544531250002,63.66725531616211Q187.65914531250002,63.501655316162115,187.6346453125,63.33705531616211Q187.6102453125,63.17235531616211,187.57774531249999,63.00915531616211Q187.5453453125,62.84585531616211,187.5048453125,62.68445531616211Q187.4644453125,62.52295531616211,187.4161453125,62.36375531616211Q187.3678453125,62.20445531616211,187.3117453125,62.04775531616211Q187.2556453125,61.89105531616211,187.1919453125,61.737255316162106Q187.12824531249998,61.58345531616211,187.05714531249998,61.43305531616211Q186.9859453125,61.28255531616211,186.9074453125,61.135755316162104Q186.8290453125,60.988955316162105,186.7434453125,60.846255316162114Q186.6579453125,60.703455316162106,186.5654453125,60.56505531616211Q186.4729453125,60.42665531616211,186.3738453125,60.29295531616211Q186.2746453125,60.159355316162106,186.1690453125,60.03065531616211Q186.0634453125,59.90195531616211,185.9517453125,59.77865531616211Q185.8399453125,59.65535531616211,185.7222453125,59.53765531616211Q185.6045453125,59.41995531616211,185.4812453125,59.308155316162114Q185.3579453125,59.19645531616211,185.22924531249998,59.090855316162106Q185.1005453125,58.98525531616211,184.9669453125,58.886055316162114Q184.8332453125,58.78695531616211,184.6948453125,58.694455316162106Q184.5564453125,58.60205531616211,184.4136453125,58.51645531616211Q184.2709453125,58.43085531616211,184.1241453125,58.35245531616211Q183.9773453125,58.27395531616211,183.82684531249998,58.20275531616211Q183.6764453125,58.13165531616211,183.5226453125,58.06795531616211Q183.3688453125,58.00425531616211,183.2121453125,57.94815531616211Q183.0554453125,57.892055316162114,182.8961453125,57.84375531616211Q182.73694531249998,57.795455316162105,182.5754453125,57.755055316162114Q182.4140453125,57.714555316162105,182.2507453125,57.68215531616211Q182.0875453125,57.64965531616211,181.9229453125,57.62525531616211Q181.7582453125,57.60085531616211,181.5926453125,57.584455316162106Q181.4269453125,57.568155316162105,181.2607453125,57.56005531616211Q181.0945453125,57.551855316162104,180.9280453125,57.551855316162104Q180.7616453125,57.551855316162104,180.5953453125,57.56005531616211Q180.4291453125,57.568155316162105,180.2635453125,57.584455316162106Q180.0978453125,57.60085531616211,179.9332453125,57.62525531616211Q179.76864531249998,57.64965531616211,179.6053453125,57.68215531616211Q179.4421453125,57.714555316162105,179.28064531249998,57.755055316162114Q179.1192453125,57.795455316162105,178.9599453125,57.84375531616211Q178.8006453125,57.89215531616211,178.6439453125,57.94815531616211Q178.4872453125,58.00425531616211,178.3334453125,58.06795531616211Q178.17974531250002,58.13165531616211,178.0292453125,58.20275531616211Q177.8787453125,58.27395531616211,177.7320453125,58.35245531616211Q177.5852453125,58.43085531616211,177.4424453125,58.51645531616211Q177.2996453125,58.60205531616211,177.1613453125,58.694455316162106Q177.02294531249998,58.78695531616211,176.8892453125,58.886055316162114Q176.7555453125,58.98525531616211,176.6268453125,59.090855316162106Q176.4982453125,59.19645531616211,176.37494531250002,59.308155316162114Q176.2515453125,59.41995531616211,176.1338453125,59.53765531616211Q176.0161453125,59.65535531616211,175.9044453125,59.77865531616211Q175.79264531249999,59.90195531616211,175.6870453125,60.03065531616211Q175.5814453125,60.159355316162106,175.4823453125,60.29295531616211Q175.3831453125,60.42665531616211,175.2907453125,60.56505531616211Q175.1982453125,60.703455316162106,175.1126453125,60.846255316162114Q175.0271453125,60.988955316162105,174.9486453125,61.135755316162104Q174.8701453125,61.28255531616211,174.7990453125,61.43305531616211Q174.7278453125,61.58345531616211,174.6641453125,61.737255316162106Q174.6004453125,61.89105531616211,174.5444453125,62.04775531616211Q174.4883453125,62.20445531616211,174.4400453125,62.36375531616211Q174.3917453125,62.52295531616211,174.3512453125,62.68445531616211Q174.3108453125,62.84585531616211,174.2783453125,63.00915531616211Q174.2458453125,63.17235531616211,174.2214453125,63.33705531616211Q174.1970453125,63.501655316162115,174.1807453125,63.66725531616211Q174.1644453125,63.832955316162106,174.1562453125,63.99915531616211Q174.14804531250002,64.1653553161621,174.14804531250002,64.33185531616212Q174.14804531250002,64.4982553161621,174.1562453125,64.66455531616211Q174.1644453125,64.83075531616211,174.1807453125,64.99635531616211Q174.1970453125,65.16205531616211,174.2214453125,65.32665531616212Q174.2458453125,65.4913553161621,174.2783453125,65.65455531616212Q174.3108453125,65.8177553161621,174.3512453125,65.97925531616211Q174.3917453125,66.14065531616211,174.4400453125,66.29995531616211Q174.4883453125,66.45925531616211,174.5444453125,66.61595531616211Q174.6004453125,66.77265531616212,174.6641453125,66.9264553161621Q174.7278453125,67.08015531616212,174.7990453125,67.23065531616211Q174.8701453125,67.38115531616211,174.9486453125,67.5279553161621Q175.0271453125,67.6746553161621,175.1126453125,67.81745531616211Q175.1982453125,67.96025531616212,175.2907453125,68.09865531616211Q175.3831453125,68.23695531616211,175.4823453125,68.3706553161621Q175.5814453125,68.5043553161621,175.6870453125,68.63305531616211Q175.79264531249999,68.76165531616212,175.9044453125,68.88505531616211Q176.0161453125,69.00835531616211,176.1338453125,69.12605531616211Q176.2515453125,69.24375531616211,176.37494531250002,69.35545531616211Q176.4982453125,69.46725531616211,176.6268453125,69.5728553161621Q176.7555453125,69.67845531616211,176.8892453125,69.77755531616211Q177.02294531249998,69.8767553161621,177.1613453125,69.9692553161621Q177.2996453125,70.0616553161621,177.4424453125,70.1472553161621Q177.5852453125,70.2328553161621,177.7320453125,70.31125531616212Q177.8787453125,70.38975531616211,178.0292453125,70.46085531616211Q178.17974531250002,70.53205531616211,178.3334453125,70.59575531616211Q178.4872453125,70.65945531616211,178.6439453125,70.71555531616211Q178.8006453125,70.77155531616211,178.9599453125,70.81985531616212Q179.1192453125,70.8682553161621,179.28064531249998,70.90865531616211Q179.4421453125,70.94905531616212,179.6053453125,70.98155531616212Q179.76864531249998,71.01405531616211,179.9332453125,71.0384553161621Q180.0978453125,71.06285531616211,180.2635453125,71.07915531616212Q180.4291453125,71.09555531616212,180.5953453125,71.1036553161621Q180.7616453125,71.1118553161621,180.9280453125,71.1118553161621ZM174.51194531250002,77.53205531616211Q174.51194531250002,77.69845531616211,174.5037453125,77.8647553161621Q174.49554531249998,78.0309553161621,174.47924531249998,78.19655531616212Q174.46294531249998,78.3622553161621,174.4385453125,78.52685531616211Q174.4141453125,78.69155531616211,174.38164531249998,78.85475531616211Q174.3491453125,79.0179553161621,174.3087453125,79.17945531616212Q174.2682453125,79.3408553161621,174.2199453125,79.50015531616211Q174.1716453125,79.65945531616211,174.1155453125,79.81615531616211Q174.0595453125,79.97285531616211,173.9958453125,80.1266553161621Q173.93214531249998,80.28035531616212,173.8609453125,80.43085531616211Q173.7897453125,80.5813553161621,173.7113453125,80.72815531616212Q173.6328453125,80.87485531616211,173.5473453125,81.01765531616212Q173.4617453125,81.16045531616211,173.3692453125,81.2987553161621Q173.2767453125,81.43715531616212,173.1776453125,81.57085531616211Q173.0785453125,81.7045553161621,172.9729453125,81.83325531616211Q172.8673453125,81.96185531616212,172.7555453125,82.08525531616212Q172.64374531250002,82.20855531616212,172.5260453125,82.3262553161621Q172.4084453125,82.44395531616212,172.28504531250002,82.5556553161621Q172.1617453125,82.66745531616212,172.0330453125,82.7730553161621Q171.9044453125,82.87865531616211,171.7707453125,82.9777553161621Q171.6370453125,83.0769553161621,171.4986453125,83.16935531616211Q171.3602453125,83.26185531616211,171.2175453125,83.34745531616211Q171.0747453125,83.43305531616211,170.92794531250001,83.51145531616211Q170.7811453125,83.5899553161621,170.63074531249998,83.6610553161621Q170.48024531250002,83.73225531616211,170.3264453125,83.79595531616211Q170.1727453125,83.8596553161621,170.0160453125,83.91575531616212Q169.8592453125,83.9717553161621,169.7000453125,84.02005531616211Q169.5407453125,84.0684553161621,169.3793453125,84.1088553161621Q169.2178453125,84.14925531616211,169.05464531249999,84.18175531616211Q168.8913453125,84.21425531616211,168.7267453125,84.23865531616211Q168.5621453125,84.26305531616211,168.3964453125,84.27935531616211Q168.2308453125,84.29575531616211,168.0645453125,84.3038553161621Q167.8983453125,84.31205531616212,167.7319453125,84.31205531616212Q167.5654453125,84.31205531616212,167.3992453125,84.3038553161621Q167.2329453125,84.29575531616211,167.0673453125,84.27935531616211Q166.9017453125,84.26305531616211,166.73704531250002,84.23865531616211Q166.5724453125,84.21425531616211,166.40914531250002,84.18175531616211Q166.2459453125,84.14925531616211,166.0845453125,84.1088553161621Q165.9230453125,84.0684553161621,165.7637453125,84.02005531616211Q165.6045453125,83.9717553161621,165.4477453125,83.91575531616212Q165.2910453125,83.8596553161621,165.1373453125,83.79595531616211Q164.98354531249998,83.73225531616211,164.8330453125,83.6610553161621Q164.6826453125,83.5899553161621,164.5358453125,83.51145531616211Q164.3890453125,83.43305531616211,164.2462453125,83.34745531616211Q164.1035453125,83.26185531616211,163.9651453125,83.16935531616211Q163.8267453125,83.0769553161621,163.6930453125,82.9777553161621Q163.5593453125,82.87865531616211,163.4307453125,82.7730553161621Q163.3020453125,82.66745531616212,163.17874531249998,82.5556553161621Q163.0554453125,82.44395531616212,162.9377453125,82.3262553161621Q162.82004531249999,82.20855531616212,162.7082453125,82.08515531616212Q162.5964453125,81.96185531616212,162.4908453125,81.83325531616211Q162.3853453125,81.7045553161621,162.2861453125,81.57085531616211Q162.1870453125,81.43715531616212,162.0945453125,81.2987553161621Q162.0020453125,81.16045531616211,161.9165453125,81.01765531616212Q161.8309453125,80.87485531616211,161.75244531250002,80.72815531616212Q161.6740453125,80.5813553161621,161.6028453125,80.43085531616211Q161.5316453125,80.28035531616212,161.4680453125,80.1266553161621Q161.4043453125,79.97285531616211,161.3482453125,79.81615531616211Q161.2921453125,79.65945531616211,161.2438453125,79.50015531616211Q161.1955453125,79.3408553161621,161.1550453125,79.17945531616212Q161.1146453125,79.0179553161621,161.0821453125,78.85475531616211Q161.0497453125,78.69155531616211,161.0252453125,78.52685531616211Q161.0008453125,78.3622553161621,160.9845453125,78.19655531616212Q160.9682453125,78.0309553161621,160.9600453125,77.8647553161621Q160.95194531250002,77.69845531616211,160.95194531250002,77.53205531616211Q160.95194531250002,77.3655553161621,160.9600453125,77.19935531616211Q160.9682453125,77.03315531616211,160.9845453125,76.86745531616211Q161.0008453125,76.70185531616211,161.0252453125,76.53715531616211Q161.0497453125,76.3725553161621,161.0821453125,76.20935531616212Q161.1146453125,76.04605531616211,161.1550453125,75.88465531616211Q161.1955453125,75.7231553161621,161.2438453125,75.56395531616211Q161.2921453125,75.4046553161621,161.3482453125,75.24795531616212Q161.4043453125,75.09125531616212,161.4680453125,74.9374553161621Q161.5316453125,74.78365531616211,161.6028453125,74.6332553161621Q161.6740453125,74.48275531616211,161.75244531250002,74.33595531616211Q161.8309453125,74.1891553161621,161.9165453125,74.04645531616211Q162.0020453125,73.90365531616212,162.0945453125,73.76525531616211Q162.1870453125,73.6268553161621,162.2861453125,73.4931553161621Q162.3853453125,73.3595553161621,162.4908453125,73.2308553161621Q162.5964453125,73.10215531616211,162.7082453125,72.97885531616211Q162.82004531249999,72.85555531616211,162.9377453125,72.73785531616211Q163.0554453125,72.62015531616211,163.17874531249998,72.50835531616211Q163.3020453125,72.39665531616211,163.4307453125,72.2910553161621Q163.5593453125,72.18545531616212,163.6930453125,72.08625531616211Q163.8267453125,71.9871553161621,163.9651453125,71.8946553161621Q164.1035453125,71.8022553161621,164.2462453125,71.7166553161621Q164.3890453125,71.6310553161621,164.5358453125,71.55265531616212Q164.6826453125,71.47415531616211,164.8330453125,71.4029553161621Q164.98354531249998,71.33185531616212,165.1373453125,71.26815531616211Q165.2910453125,71.20445531616211,165.4477453125,71.14835531616211Q165.6045453125,71.09225531616211,165.7637453125,71.04395531616211Q165.9230453125,70.9956553161621,166.0845453125,70.95525531616211Q166.2459453125,70.91475531616211,166.40914531250002,70.88235531616212Q166.5724453125,70.8498553161621,166.73704531250002,70.8254553161621Q166.9017453125,70.80095531616212,167.0673453125,70.78465531616212Q167.2329453125,70.76835531616211,167.3992453125,70.7602553161621Q167.5654453125,70.75205531616211,167.7319453125,70.75205531616211Q167.8983453125,70.75205531616211,168.0645453125,70.7602553161621Q168.2308453125,70.76835531616211,168.3964453125,70.78465531616212Q168.5621453125,70.80095531616212,168.7267453125,70.8254553161621Q168.8913453125,70.8498553161621,169.05464531249999,70.88235531616212Q169.2178453125,70.91475531616211,169.3793453125,70.95525531616211Q169.5407453125,70.9956553161621,169.7000453125,71.04395531616211Q169.8592453125,71.09225531616211,170.0160453125,71.14835531616211Q170.1727453125,71.20445531616211,170.3264453125,71.26815531616211Q170.48024531250002,71.33185531616212,170.63074531249998,71.4029553161621Q170.7811453125,71.47415531616211,170.92794531250001,71.55265531616212Q171.0747453125,71.6310553161621,171.2175453125,71.7166553161621Q171.3602453125,71.8021553161621,171.4986453125,71.8946553161621Q171.6370453125,71.9871553161621,171.7707453125,72.08625531616211Q171.9044453125,72.18545531616212,172.0330453125,72.2910553161621Q172.1617453125,72.39665531616211,172.28504531250002,72.50835531616211Q172.4084453125,72.62015531616211,172.5260453125,72.73785531616211Q172.64374531250002,72.85555531616211,172.7555453125,72.97885531616211Q172.8673453125,73.10215531616211,172.9729453125,73.2308553161621Q173.0785453125,73.3595553161621,173.1776453125,73.4931553161621Q173.2767453125,73.6268553161621,173.3692453125,73.76525531616211Q173.4617453125,73.90365531616212,173.5473453125,74.04645531616211Q173.6328453125,74.1891553161621,173.7113453125,74.33595531616211Q173.7897453125,74.48275531616211,173.8609453125,74.6332553161621Q173.93214531249998,74.78365531616211,173.9958453125,74.9374553161621Q174.0595453125,75.09125531616212,174.1155453125,75.24795531616212Q174.1716453125,75.4046553161621,174.2199453125,75.56395531616211Q174.2682453125,75.7231553161621,174.3087453125,75.88465531616211Q174.3491453125,76.04605531616211,174.38164531249998,76.20935531616212Q174.4141453125,76.3725553161621,174.4385453125,76.53725531616212Q174.46294531249998,76.70185531616211,174.47924531249998,76.86745531616211Q174.49554531249998,77.03315531616211,174.5037453125,77.19935531616211Q174.51194531250002,77.3655553161621,174.51194531250002,77.53205531616211Z"
                    fill-rule="evenodd" fill="#6067EB" fill-opacity="1" />
            </g>
        </g>
    </g>
</svg>