<svg xmlns="http://www.w3.org/2000/svg" xmlns:xlink="http://www.w3.org/1999/xlink" fill="none" version="1.1" width="212"
    height="108" viewBox="0 0 212 108">
    <defs>
        <linearGradient x1="0" y1="0" x2="1" y2="1" id="master_svg0_27_538">
            <stop offset="0%" stop-color="#F3A768" stop-opacity="1" />
            <stop offset="100%" stop-color="#FF716C" stop-opacity="1" />
        </linearGradient>
        <clipPath id="master_svg1_27_528">
            <rect x="128" y="24" width="80" height="80" rx="0" />
        </clipPath>
    </defs>
    <g>
        <g>
            <rect x="0" y="0" width="212" height="108" rx="8" fill="url(#master_svg0_27_538)" fill-opacity="1" />
        </g>
        <g style="opacity:0.5;" clip-path="url(#master_svg1_27_528)">
            <g>
                <path
                    d="M168,99Q168.8592,99,169.7174,98.9578Q170.5755,98.9157,171.4306,98.8314Q172.2856,98.7472,173.1355,98.6211Q173.9854,98.4951,174.8281,98.3274Q175.67079999999999,98.1598,176.5043,97.9511Q177.33769999999998,97.7423,178.1599,97.4929Q178.9821,97.2435,179.7911,96.954Q180.6001,96.6645,181.3939,96.3357Q182.1877,96.0069,182.9644,95.6396Q183.74110000000002,95.2722,184.4989,94.8672Q185.2566,94.4622,185.99360000000001,94.0205Q186.7305,93.5788,187.4449,93.1014Q188.1593,92.6241,188.8494,92.1122Q189.5396,91.60040000000001,190.2037,91.0553Q190.8679,90.5103,191.5045,89.9333Q192.1412,89.3563,192.74869999999999,88.7487Q193.3563,88.1412,193.9333,87.50450000000001Q194.5103,86.86789999999999,195.0553,86.2037Q195.6004,85.53960000000001,196.1122,84.8494Q196.6241,84.1593,197.1014,83.44489999999999Q197.5788,82.7305,198.0205,81.9936Q198.4622,81.25659999999999,198.8672,80.49889999999999Q199.2722,79.7411,199.6396,78.9644Q200.0069,78.1877,200.3357,77.3939Q200.6645,76.6001,200.954,75.7911Q201.24349999999998,74.9821,201.49290000000002,74.1599Q201.7423,73.3377,201.9511,72.5043Q202.15980000000002,71.6708,202.3274,70.8281Q202.49509999999998,69.9854,202.6211,69.13550000000001Q202.74720000000002,68.2856,202.8314,67.4306Q202.91570000000002,66.5755,202.95780000000002,65.7174Q203,64.8592,203,64Q203,63.1408,202.95780000000002,62.2826Q202.91570000000002,61.4244,202.8314,60.5694Q202.74720000000002,59.7143,202.6211,58.8644Q202.49509999999998,58.0145,202.3274,57.171800000000005Q202.15980000000002,56.3291,201.9511,55.4957Q201.7423,54.6622,201.49290000000002,53.84Q201.24349999999998,53.0178,200.954,52.2088Q200.6645,51.3999,200.3357,50.6061Q200.0069,49.8123,199.6396,49.0356Q199.2722,48.2589,198.8672,47.5011Q198.4622,46.7434,198.0205,46.0064Q197.5788,45.269400000000005,197.1014,44.555Q196.6241,43.8406,196.1122,43.1505Q195.6004,42.4604,195.0553,41.7962Q194.5103,41.1321,193.9333,40.495400000000004Q193.3563,39.8588,192.74869999999999,39.2513Q192.1412,38.64371,191.5045,38.06671Q190.8679,37.4897,190.2037,36.944630000000004Q189.5396,36.39956,188.8494,35.88773Q188.1593,35.37591,187.4449,34.89856Q186.7305,34.42121,185.99360000000001,33.9795Q185.2566,33.53778,184.4989,33.13275Q183.74110000000002,32.72773,182.9644,32.36037Q182.1877,31.99302,181.3939,31.66421Q180.6001,31.33541,179.7911,31.04596Q178.9821,30.7565,178.1599,30.50709Q177.33769999999998,30.25767,176.5043,30.04891Q175.67079999999999,29.840137,174.8281,29.672515Q173.9854,29.504893,173.1355,29.378822Q172.2856,29.252751,171.4306,29.168534Q170.5755,29.084318,169.7174,29.042159Q168.8592,29,168,29Q167.1408,29,166.2826,29.042159Q165.4244,29.084318,164.5694,29.168534Q163.7143,29.252751,162.8644,29.378822Q162.0145,29.504893,161.1718,29.672515Q160.3291,29.840137,159.4957,30.04891Q158.66219999999998,30.25767,157.84,30.50709Q157.0178,30.7565,156.2088,31.04596Q155.3999,31.33541,154.6061,31.66421Q153.8123,31.99302,153.0356,32.36037Q152.2589,32.72773,151.5011,33.13275Q150.7434,33.53778,150.00639999999999,33.9795Q149.2694,34.42121,148.555,34.89856Q147.8406,35.37591,147.1505,35.88773Q146.4604,36.39956,145.7962,36.944630000000004Q145.1321,37.4897,144.4954,38.06671Q143.8588,38.64371,143.25130000000001,39.2513Q142.64371,39.8588,142.06671,40.495400000000004Q141.4897,41.1321,140.94463,41.7962Q140.39956,42.4604,139.88773,43.1505Q139.37591,43.8406,138.89856,44.555Q138.42121,45.269400000000005,137.9795,46.0064Q137.53778,46.7434,137.13275,47.5011Q136.72773,48.2589,136.36037,49.0356Q135.99302,49.8123,135.66421,50.6061Q135.33541,51.3999,135.04596,52.2088Q134.7565,53.0178,134.50709,53.84Q134.25767,54.6622,134.04891,55.4957Q133.840137,56.3291,133.672515,57.171800000000005Q133.504893,58.0145,133.378822,58.8644Q133.252751,59.7143,133.168534,60.5694Q133.084318,61.4244,133.042159,62.2826Q133,63.1408,133,64Q133,64.8592,133.042159,65.7174Q133.084318,66.5755,133.168534,67.4306Q133.252751,68.2856,133.378822,69.13550000000001Q133.504893,69.9854,133.672515,70.8281Q133.840137,71.6708,134.04891,72.5043Q134.25767,73.3377,134.50709,74.1599Q134.7565,74.9821,135.04596,75.7911Q135.33541,76.6001,135.66421,77.3939Q135.99302,78.1877,136.36037,78.9644Q136.72773,79.7411,137.13275,80.49889999999999Q137.53778,81.25659999999999,137.9795,81.9936Q138.42121,82.7305,138.89856,83.44489999999999Q139.37591,84.1593,139.88773,84.8494Q140.39956,85.53960000000001,140.94463,86.2037Q141.4897,86.86789999999999,142.06671,87.50450000000001Q142.64371,88.1412,143.25130000000001,88.7487Q143.8588,89.3563,144.4954,89.9333Q145.1321,90.5103,145.7962,91.0553Q146.4604,91.60040000000001,147.1505,92.1122Q147.8406,92.6241,148.555,93.1014Q149.2694,93.5788,150.00639999999999,94.0205Q150.7434,94.4622,151.5011,94.8672Q152.2589,95.2722,153.0356,95.6396Q153.8123,96.0069,154.6061,96.3357Q155.3999,96.6645,156.2088,96.954Q157.0178,97.2435,157.84,97.4929Q158.66219999999998,97.7423,159.4957,97.9511Q160.3291,98.1598,161.1718,98.3274Q162.0145,98.4951,162.8644,98.6211Q163.7143,98.7472,164.5694,98.8314Q165.4244,98.9157,166.2826,98.9578Q167.1408,99,168,99ZM163.847,58.1727L153.576,58.1727L167.60829999999999,73.30449999999999L181.6407,58.1727L171.5349,58.1727L171.5349,44L163.847,44L163.847,58.1727ZM181.6298,75.8755L181.6298,73.39410000000001L184.0704,73.39410000000001L184.0704,80.96000000000001L151,80.96000000000001L151,73.39410000000001L153.62369999999999,73.39410000000001L153.62369999999999,75.8755L181.6298,75.8755Z"
                    fill-rule="evenodd" fill="#ED6964" fill-opacity="1" />
            </g>
        </g>
    </g>
</svg>